# Blender v2.80 (sub 75) OBJ File: 'arrow.blend'
# www.blender.org
v 0.000000 2.000000 -0.500000
v 0.097545 2.000000 -0.490393
v 0.191342 2.000000 -0.461940
v 0.277785 2.000000 -0.415735
v 0.353553 2.000000 -0.353553
v 0.415735 2.000000 -0.277785
v 0.461940 2.000000 -0.191342
v 0.490393 2.000000 -0.097545
v 0.500000 2.000000 0.000000
v 0.490393 2.000000 0.097545
v 0.461940 2.000000 0.191342
v 0.415735 2.000000 0.277785
v 0.353553 2.000000 0.353553
v 0.277785 2.000000 0.415735
v 0.191342 2.000000 0.461940
v 0.097545 2.000000 0.490393
v -0.000000 2.000000 0.500000
v -0.097545 2.000000 0.490393
v -0.191342 2.000000 0.461940
v -0.277785 2.000000 0.415735
v -0.353553 2.000000 0.353553
v -0.415735 2.000000 0.277785
v -0.461940 2.000000 0.191342
v -0.490393 2.000000 0.097545
v -0.500000 2.000000 -0.000000
v -0.490393 2.000000 -0.097545
v -0.461940 2.000000 -0.191342
v -0.415735 2.000000 -0.277785
v -0.353553 2.000000 -0.353553
v -0.277785 2.000000 -0.415735
v -0.191342 2.000000 -0.461940
v -0.097545 2.000000 -0.490393
v 0.000000 3.000000 0.000000
v 0.000000 0.000000 -0.200000
v 0.000000 2.000000 -0.200000
v 0.039018 0.000000 -0.196157
v 0.039018 2.000000 -0.196157
v 0.076537 0.000000 -0.184776
v 0.076537 2.000000 -0.184776
v 0.111114 0.000000 -0.166294
v 0.111114 2.000000 -0.166294
v 0.141421 0.000000 -0.141421
v 0.141421 2.000000 -0.141421
v 0.166294 0.000000 -0.111114
v 0.166294 2.000000 -0.111114
v 0.184776 0.000000 -0.076537
v 0.184776 2.000000 -0.076537
v 0.196157 0.000000 -0.039018
v 0.196157 2.000000 -0.039018
v 0.200000 0.000000 0.000000
v 0.200000 2.000000 0.000000
v 0.196157 0.000000 0.039018
v 0.196157 2.000000 0.039018
v 0.184776 0.000000 0.076537
v 0.184776 2.000000 0.076537
v 0.166294 0.000000 0.111114
v 0.166294 2.000000 0.111114
v 0.141421 0.000000 0.141421
v 0.141421 2.000000 0.141421
v 0.111114 0.000000 0.166294
v 0.111114 2.000000 0.166294
v 0.076537 0.000000 0.184776
v 0.076537 2.000000 0.184776
v 0.039018 0.000000 0.196157
v 0.039018 2.000000 0.196157
v -0.000000 0.000000 0.200000
v -0.000000 2.000000 0.200000
v -0.039018 0.000000 0.196157
v -0.039018 2.000000 0.196157
v -0.076537 0.000000 0.184776
v -0.076537 2.000000 0.184776
v -0.111114 0.000000 0.166294
v -0.111114 2.000000 0.166294
v -0.141421 0.000000 0.141421
v -0.141421 2.000000 0.141421
v -0.166294 0.000000 0.111114
v -0.166294 2.000000 0.111114
v -0.184776 0.000000 0.076537
v -0.184776 2.000000 0.076537
v -0.196157 0.000000 0.039018
v -0.196157 2.000000 0.039018
v -0.200000 0.000000 -0.000000
v -0.200000 2.000000 -0.000000
v -0.196157 0.000000 -0.039018
v -0.196157 2.000000 -0.039018
v -0.184776 0.000000 -0.076537
v -0.184776 2.000000 -0.076537
v -0.166294 0.000000 -0.111114
v -0.166294 2.000000 -0.111114
v -0.141421 0.000000 -0.141421
v -0.141421 2.000000 -0.141421
v -0.111114 0.000000 -0.166294
v -0.111114 2.000000 -0.166294
v -0.076537 0.000000 -0.184776
v -0.076537 2.000000 -0.184776
v -0.039018 0.000000 -0.196157
v -0.039018 2.000000 -0.196157
v -0.176537 2.000000 0.035115
v 0.176537 2.000000 -0.035115
vt 0.250000 0.490000
vt 0.250000 0.250000
vt 0.296822 0.485388
vt 0.341844 0.471731
vt 0.383337 0.449553
vt 0.419706 0.419706
vt 0.449553 0.383337
vt 0.471731 0.341844
vt 0.485388 0.296822
vt 0.490000 0.250000
vt 0.485388 0.203178
vt 0.471731 0.158156
vt 0.449553 0.116663
vt 0.419706 0.080294
vt 0.383337 0.050447
vt 0.341844 0.028269
vt 0.296822 0.014612
vt 0.250000 0.010000
vt 0.203178 0.014612
vt 0.158156 0.028269
vt 0.116663 0.050447
vt 0.080294 0.080294
vt 0.050447 0.116663
vt 0.028269 0.158156
vt 0.014612 0.203178
vt 0.010000 0.250000
vt 0.014612 0.296822
vt 0.028269 0.341844
vt 0.050447 0.383337
vt 0.080294 0.419706
vt 0.116663 0.449553
vt 0.158156 0.471731
vt 0.786738 0.338693
vt 0.768729 0.344155
vt 0.841844 0.471731
vt 0.203178 0.485388
vt 1.000000 1.000000
vt 0.968750 0.500000
vt 1.000000 0.500000
vt 0.968750 1.000000
vt 0.937500 0.500000
vt 0.937500 1.000000
vt 0.906250 0.500000
vt 0.906250 1.000000
vt 0.875000 0.500000
vt 0.875000 1.000000
vt 0.843750 0.500000
vt 0.843750 1.000000
vt 0.812500 0.500000
vt 0.812500 1.000000
vt 0.781250 0.500000
vt 0.781250 1.000000
vt 0.750000 0.500000
vt 0.750000 1.000000
vt 0.718750 0.500000
vt 0.718750 1.000000
vt 0.687500 0.500000
vt 0.687500 1.000000
vt 0.656250 0.500000
vt 0.656250 1.000000
vt 0.625000 0.500000
vt 0.625000 1.000000
vt 0.593750 0.500000
vt 0.593750 1.000000
vt 0.562500 0.500000
vt 0.562500 1.000000
vt 0.531250 0.500000
vt 0.531250 1.000000
vt 0.500000 0.500000
vt 0.500000 1.000000
vt 0.468750 0.500000
vt 0.468750 1.000000
vt 0.437500 0.500000
vt 0.437500 1.000000
vt 0.406250 0.500000
vt 0.406250 1.000000
vt 0.375000 0.500000
vt 0.375000 1.000000
vt 0.343750 0.500000
vt 0.343750 1.000000
vt 0.312500 0.500000
vt 0.312500 1.000000
vt 0.281250 0.500000
vt 0.281250 1.000000
vt 0.250000 0.500000
vt 0.250000 1.000000
vt 0.218750 0.500000
vt 0.218750 1.000000
vt 0.187500 0.500000
vt 0.187500 1.000000
vt 0.156250 0.500000
vt 0.156250 1.000000
vt 0.125000 0.500000
vt 0.125000 1.000000
vt 0.093750 0.500000
vt 0.093750 1.000000
vt 0.062500 0.500000
vt 0.062500 1.000000
vt 0.031250 0.500000
vt 0.031250 1.000000
vt 0.000000 0.500000
vt 0.985388 0.296822
vt 0.796822 0.014612
vt 0.514612 0.203178
vt 0.768729 0.155845
vt 0.786738 0.161308
vt 0.841844 0.028269
vt 0.703178 0.485388
vt 0.750000 0.490000
vt 0.731271 0.344155
vt 0.796822 0.485388
vt 0.750000 0.346000
vt 0.713262 0.338692
vt 0.883337 0.449553
vt 0.919706 0.419706
vt 0.817882 0.317882
vt 0.949553 0.383337
vt 0.829821 0.303335
vt 0.838693 0.286738
vt 0.971731 0.341844
vt 0.985388 0.296822
vt 0.844155 0.268729
vt 0.990000 0.250000
vt 0.846000 0.250000
vt 0.658156 0.471731
vt 0.616663 0.449553
vt 0.696665 0.329821
vt 0.550447 0.383337
vt 0.580294 0.419706
vt 0.682118 0.317882
vt 0.514612 0.296822
vt 0.528269 0.341844
vt 0.661307 0.286738
vt 0.670179 0.303334
vt 0.654000 0.250000
vt 0.510000 0.250000
vt 0.655845 0.268729
vt 0.803335 0.329821
vt 0.000000 1.000000
vt 0.703178 0.485388
vt 0.750000 0.490000
vt 0.796822 0.485388
vt 0.841844 0.471731
vt 0.883337 0.449553
vt 0.919706 0.419706
vt 0.949553 0.383337
vt 0.971731 0.341844
vt 0.990000 0.250000
vt 0.985388 0.203178
vt 0.971731 0.158156
vt 0.949553 0.116663
vt 0.919706 0.080294
vt 0.883337 0.050447
vt 0.841844 0.028269
vt 0.750000 0.010000
vt 0.703178 0.014612
vt 0.658156 0.028269
vt 0.616663 0.050447
vt 0.580294 0.080294
vt 0.550447 0.116663
vt 0.528269 0.158156
vt 0.510000 0.250000
vt 0.514612 0.296822
vt 0.528269 0.341844
vt 0.550447 0.383337
vt 0.580294 0.419706
vt 0.616663 0.449553
vt 0.658156 0.471731
vt 0.514612 0.203178
vt 0.655845 0.231271
vt 0.550447 0.116663
vt 0.528269 0.158156
vt 0.661308 0.213262
vt 0.616663 0.050447
vt 0.580294 0.080294
vt 0.696665 0.170179
vt 0.682118 0.182118
vt 0.713263 0.161308
vt 0.703178 0.014612
vt 0.658156 0.028269
vt 0.796822 0.014612
vt 0.750000 0.010000
vt 0.750000 0.154000
vt 0.731271 0.155845
vt 0.883337 0.050447
vt 0.949553 0.116663
vt 0.919706 0.080294
vt 0.829821 0.196665
vt 0.817882 0.182118
vt 0.838693 0.213262
vt 0.985388 0.203178
vt 0.971731 0.158156
vt 0.844156 0.231271
vt 0.670179 0.196665
vt 0.803335 0.170179
vn 0.0878 0.4455 -0.8910
vn 0.2599 0.4455 -0.8567
vn 0.4220 0.4455 -0.7896
vn 0.5680 0.4455 -0.6921
vn 0.6921 0.4455 -0.5680
vn 0.7896 0.4455 -0.4220
vn 0.8567 0.4455 -0.2599
vn 0.8910 0.4455 -0.0878
vn 0.8910 0.4455 0.0878
vn 0.8567 0.4455 0.2599
vn 0.7896 0.4455 0.4220
vn 0.6921 0.4455 0.5680
vn 0.5680 0.4455 0.6921
vn 0.4220 0.4455 0.7896
vn 0.2599 0.4455 0.8567
vn 0.0878 0.4455 0.8910
vn -0.0878 0.4455 0.8910
vn -0.2599 0.4455 0.8567
vn -0.4220 0.4455 0.7896
vn -0.5680 0.4455 0.6921
vn -0.6921 0.4455 0.5680
vn -0.7896 0.4455 0.4220
vn -0.8567 0.4455 0.2599
vn -0.8910 0.4455 0.0878
vn -0.8910 0.4455 -0.0878
vn -0.8567 0.4455 -0.2599
vn -0.7896 0.4455 -0.4220
vn -0.6921 0.4455 -0.5680
vn -0.5680 0.4455 -0.6921
vn -0.4220 0.4455 -0.7896
vn 0.0000 -1.0000 0.0000
vn -0.2599 0.4455 -0.8567
vn -0.0878 0.4455 -0.8910
vn 0.0980 0.0000 -0.9952
vn 0.2903 0.0000 -0.9569
vn 0.4714 0.0000 -0.8819
vn 0.6344 0.0000 -0.7730
vn 0.7730 0.0000 -0.6344
vn 0.8819 0.0000 -0.4714
vn 0.9569 0.0000 -0.2903
vn 0.9952 0.0000 -0.0980
vn 0.9952 0.0000 0.0980
vn 0.9569 0.0000 0.2903
vn 0.8819 0.0000 0.4714
vn 0.7730 0.0000 0.6344
vn 0.6344 0.0000 0.7730
vn 0.4714 0.0000 0.8819
vn 0.2903 0.0000 0.9569
vn 0.0980 0.0000 0.9952
vn -0.0980 0.0000 0.9952
vn -0.2903 0.0000 0.9569
vn -0.4714 0.0000 0.8819
vn -0.6344 0.0000 0.7730
vn -0.7730 0.0000 0.6344
vn -0.8819 0.0000 0.4714
vn -0.9569 0.0000 0.2903
vn -0.9952 0.0000 0.0980
vn -0.9952 0.0000 -0.0980
vn -0.9569 0.0000 -0.2903
vn -0.8819 0.0000 -0.4714
vn -0.7730 0.0000 -0.6344
vn -0.6344 0.0000 -0.7730
vn -0.4714 0.0000 -0.8819
vn -0.2903 0.0000 -0.9569
vn -0.0980 0.0000 -0.9952
s off
f 1/1/1 33/2/1 2/3/1
f 2/3/2 33/2/2 3/4/2
f 3/4/3 33/2/3 4/5/3
f 4/5/4 33/2/4 5/6/4
f 5/6/5 33/2/5 6/7/5
f 6/7/6 33/2/6 7/8/6
f 7/8/7 33/2/7 8/9/7
f 8/9/8 33/2/8 9/10/8
f 9/10/9 33/2/9 10/11/9
f 10/11/10 33/2/10 11/12/10
f 11/12/11 33/2/11 12/13/11
f 12/13/12 33/2/12 13/14/12
f 13/14/13 33/2/13 14/15/13
f 14/15/14 33/2/14 15/16/14
f 15/16/15 33/2/15 16/17/15
f 16/17/16 33/2/16 17/18/16
f 17/18/17 33/2/17 18/19/17
f 18/19/18 33/2/18 19/20/18
f 19/20/19 33/2/19 20/21/19
f 20/21/20 33/2/20 21/22/20
f 21/22/21 33/2/21 22/23/21
f 22/23/22 33/2/22 23/24/22
f 23/24/23 33/2/23 24/25/23
f 24/25/24 33/2/24 25/26/24
f 25/26/25 33/2/25 26/27/25
f 26/27/26 33/2/26 27/28/26
f 27/28/27 33/2/27 28/29/27
f 28/29/28 33/2/28 29/30/28
f 29/30/29 33/2/29 30/31/29
f 30/31/30 33/2/30 31/32/30
f 39/33/31 37/34/31 3/35/31
f 31/32/32 33/2/32 32/36/32
f 32/36/33 33/2/33 1/1/33
f 35/37/34 36/38/34 34/39/34
f 37/40/35 38/41/35 36/38/35
f 39/42/36 40/43/36 38/41/36
f 41/44/37 42/45/37 40/43/37
f 43/46/38 44/47/38 42/45/38
f 45/48/39 46/49/39 44/47/39
f 47/50/40 48/51/40 46/49/40
f 49/52/41 50/53/41 48/51/41
f 51/54/42 52/55/42 50/53/42
f 53/56/43 54/57/43 52/55/43
f 55/58/44 56/59/44 54/57/44
f 57/60/45 58/61/45 56/59/45
f 59/62/46 60/63/46 58/61/46
f 61/64/47 62/65/47 60/63/47
f 63/66/48 64/67/48 62/65/48
f 65/68/49 66/69/49 64/67/49
f 67/70/50 68/71/50 66/69/50
f 69/72/51 70/73/51 68/71/51
f 71/74/52 72/75/52 70/73/52
f 73/76/53 74/77/53 72/75/53
f 75/78/54 76/79/54 74/77/54
f 77/80/55 78/81/55 76/79/55
f 79/82/56 80/83/56 78/81/56
f 81/84/57 82/85/57 80/83/57
f 83/86/58 84/87/58 82/85/58
f 85/88/59 86/89/59 84/87/59
f 87/90/60 88/91/60 86/89/60
f 89/92/61 90/93/61 88/91/61
f 91/94/62 92/95/62 90/93/62
f 93/96/63 94/97/63 92/95/63
f 95/98/64 96/99/64 94/97/64
f 97/100/65 34/101/65 96/99/65
f 48/102/31 64/103/31 80/104/31
f 65/105/31 63/106/31 15/107/31
f 32/108/31 1/109/31 97/110/31
f 1/109/31 2/111/31 35/112/31
f 32/108/31 97/110/31 95/113/31
f 2/111/31 3/35/31 37/34/31
f 3/35/31 4/114/31 39/33/31
f 2/111/31 37/34/31 35/112/31
f 4/114/31 5/115/31 43/116/31
f 5/115/31 6/117/31 45/118/31
f 45/118/31 6/117/31 47/119/31
f 6/117/31 7/120/31 47/119/31
f 7/120/31 8/121/31 49/122/31
f 8/121/31 9/123/31 51/124/31
f 8/121/31 51/124/31 49/122/31
f 7/120/31 49/122/31 47/119/31
f 32/108/31 95/113/31 31/125/31
f 30/126/31 31/125/31 93/127/31
f 93/127/31 31/125/31 95/113/31
f 28/128/31 29/129/31 91/130/31
f 29/129/31 30/126/31 93/127/31
f 26/131/31 27/132/31 87/133/31
f 27/132/31 28/128/31 89/134/31
f 89/134/31 28/128/31 91/130/31
f 83/135/31 25/136/31 26/131/31
f 85/137/31 83/135/31 26/131/31
f 29/129/31 93/127/31 91/130/31
f 87/133/31 85/137/31 26/131/31
f 89/134/31 87/133/31 27/132/31
f 5/115/31 45/118/31 43/116/31
f 4/114/31 43/116/31 41/138/31
f 4/114/31 41/138/31 39/33/31
f 97/110/31 1/109/31 35/112/31
f 35/37/34 37/40/34 36/38/34
f 37/40/35 39/42/35 38/41/35
f 39/42/36 41/44/36 40/43/36
f 41/44/37 43/46/37 42/45/37
f 43/46/38 45/48/38 44/47/38
f 45/48/39 47/50/39 46/49/39
f 47/50/40 49/52/40 48/51/40
f 49/52/41 51/54/41 50/53/41
f 51/54/42 53/56/42 52/55/42
f 53/56/43 55/58/43 54/57/43
f 55/58/44 57/60/44 56/59/44
f 57/60/45 59/62/45 58/61/45
f 59/62/46 61/64/46 60/63/46
f 61/64/47 63/66/47 62/65/47
f 63/66/48 65/68/48 64/67/48
f 65/68/49 67/70/49 66/69/49
f 67/70/50 69/72/50 68/71/50
f 69/72/51 71/74/51 70/73/51
f 71/74/52 73/76/52 72/75/52
f 73/76/53 75/78/53 74/77/53
f 75/78/54 77/80/54 76/79/54
f 77/80/55 79/82/55 78/81/55
f 79/82/56 81/84/56 80/83/56
f 81/84/57 83/86/57 82/85/57
f 83/86/58 85/88/58 84/87/58
f 85/88/59 87/90/59 86/89/59
f 87/90/60 89/92/60 88/91/60
f 89/92/61 91/94/61 90/93/61
f 91/94/62 93/96/62 92/95/62
f 93/96/63 95/98/63 94/97/63
f 95/98/64 97/100/64 96/99/64
f 97/100/65 35/139/65 34/101/65
f 96/140/31 34/141/31 36/142/31
f 36/142/31 38/143/31 40/144/31
f 40/144/31 42/145/31 44/146/31
f 44/146/31 46/147/31 48/102/31
f 48/102/31 50/148/31 52/149/31
f 52/149/31 54/150/31 56/151/31
f 56/151/31 58/152/31 60/153/31
f 60/153/31 62/154/31 64/103/31
f 64/103/31 66/155/31 68/156/31
f 68/156/31 70/157/31 72/158/31
f 72/158/31 74/159/31 76/160/31
f 76/160/31 78/161/31 80/104/31
f 80/104/31 82/162/31 84/163/31
f 84/163/31 86/164/31 80/104/31
f 86/164/31 88/165/31 80/104/31
f 88/165/31 90/166/31 96/140/31
f 90/166/31 92/167/31 96/140/31
f 92/167/31 94/168/31 96/140/31
f 96/140/31 36/142/31 48/102/31
f 36/142/31 40/144/31 48/102/31
f 40/144/31 44/146/31 48/102/31
f 48/102/31 52/149/31 56/151/31
f 56/151/31 60/153/31 48/102/31
f 60/153/31 64/103/31 48/102/31
f 64/103/31 68/156/31 80/104/31
f 68/156/31 72/158/31 80/104/31
f 72/158/31 76/160/31 80/104/31
f 80/104/31 88/165/31 96/140/31
f 96/140/31 48/102/31 80/104/31
f 24/169/31 25/136/31 83/135/31
f 24/169/31 83/135/31 81/170/31
f 22/171/31 23/172/31 79/173/31
f 23/172/31 24/169/31 81/170/31
f 20/174/31 21/175/31 73/176/31
f 21/175/31 22/171/31 75/177/31
f 20/174/31 73/176/31 71/178/31
f 18/179/31 19/180/31 71/178/31
f 19/180/31 20/174/31 71/178/31
f 16/181/31 17/182/31 67/183/31
f 17/182/31 18/179/31 69/184/31
f 69/184/31 18/179/31 71/178/31
f 14/185/31 15/107/31 63/106/31
f 15/107/31 16/181/31 65/105/31
f 65/105/31 16/181/31 67/183/31
f 12/186/31 13/187/31 57/188/31
f 13/187/31 14/185/31 59/189/31
f 12/186/31 57/188/31 55/190/31
f 10/191/31 11/192/31 53/193/31
f 11/192/31 12/186/31 55/190/31
f 53/193/31 11/192/31 55/190/31
f 51/124/31 9/123/31 10/191/31
f 53/193/31 51/124/31 10/191/31
f 23/172/31 81/170/31 79/173/31
f 17/182/31 69/184/31 67/183/31
f 57/188/31 13/187/31 59/189/31
f 22/171/31 79/173/31 77/194/31
f 22/171/31 77/194/31 75/177/31
f 75/177/31 73/176/31 21/175/31
f 61/195/31 59/189/31 14/185/31
f 63/106/31 61/195/31 14/185/31
v 0.000000 2.000000 -0.500000
v 0.097545 2.000000 -0.490393
v 0.191342 2.000000 -0.461940
v 0.277785 2.000000 -0.415735
v 0.353553 2.000000 -0.353553
v 0.415735 2.000000 -0.277785
v 0.461940 2.000000 -0.191342
v 0.490393 2.000000 -0.097545
v 0.500000 2.000000 0.000000
v 0.490393 2.000000 0.097545
v 0.461940 2.000000 0.191342
v 0.415735 2.000000 0.277785
v 0.353553 2.000000 0.353553
v 0.277785 2.000000 0.415735
v 0.191342 2.000000 0.461940
v 0.097545 2.000000 0.490393
v -0.000000 2.000000 0.500000
v -0.097545 2.000000 0.490393
v -0.191342 2.000000 0.461940
v -0.277785 2.000000 0.415735
v -0.353553 2.000000 0.353553
v -0.415735 2.000000 0.277785
v -0.461940 2.000000 0.191342
v -0.490393 2.000000 0.097545
v -0.500000 2.000000 -0.000000
v -0.490393 2.000000 -0.097545
v -0.461940 2.000000 -0.191342
v -0.415735 2.000000 -0.277785
v -0.353553 2.000000 -0.353553
v -0.277785 2.000000 -0.415735
v -0.191342 2.000000 -0.461940
v -0.097545 2.000000 -0.490393
v 0.000000 3.000000 0.000000
vt 0.250000 0.490000
vt 0.250000 0.250000
vt 0.296822 0.485388
vt 0.341844 0.471731
vt 0.383337 0.449553
vt 0.419706 0.419706
vt 0.449553 0.383337
vt 0.471731 0.341844
vt 0.485388 0.296822
vt 0.490000 0.250000
vt 0.485388 0.203178
vt 0.471731 0.158156
vt 0.449553 0.116663
vt 0.419706 0.080294
vt 0.383337 0.050447
vt 0.341844 0.028269
vt 0.296822 0.014612
vt 0.250000 0.010000
vt 0.203178 0.014612
vt 0.158156 0.028269
vt 0.116663 0.050447
vt 0.080294 0.080294
vt 0.050447 0.116663
vt 0.028269 0.158156
vt 0.014612 0.203178
vt 0.010000 0.250000
vt 0.014612 0.296822
vt 0.028269 0.341844
vt 0.050447 0.383337
vt 0.080294 0.419706
vt 0.116663 0.449553
vt 0.158156 0.471731
vt 0.985388 0.296822
vt 0.796822 0.014612
vt 0.514612 0.203178
vt 0.203178 0.485388
vt 0.703178 0.485388
vt 0.750000 0.490000
vt 0.796822 0.485388
vt 0.841844 0.471731
vt 0.883337 0.449553
vt 0.919706 0.419706
vt 0.949553 0.383337
vt 0.971731 0.341844
vt 0.990000 0.250000
vt 0.985388 0.203178
vt 0.971731 0.158156
vt 0.949553 0.116663
vt 0.919706 0.080294
vt 0.883337 0.050447
vt 0.841844 0.028269
vt 0.750000 0.010000
vt 0.703178 0.014612
vt 0.658156 0.028269
vt 0.616663 0.050447
vt 0.580294 0.080294
vt 0.550447 0.116663
vt 0.528269 0.158156
vt 0.510000 0.250000
vt 0.514612 0.296822
vt 0.528269 0.341844
vt 0.550447 0.383337
vt 0.580294 0.419706
vt 0.616663 0.449553
vt 0.658156 0.471731
vn 0.0878 0.4455 -0.8910
vn 0.2599 0.4455 -0.8567
vn 0.4220 0.4455 -0.7896
vn 0.5680 0.4455 -0.6921
vn 0.6921 0.4455 -0.5680
vn 0.7896 0.4455 -0.4220
vn 0.8567 0.4455 -0.2599
vn 0.8910 0.4455 -0.0878
vn 0.8910 0.4455 0.0878
vn 0.8567 0.4455 0.2599
vn 0.7896 0.4455 0.4220
vn 0.6921 0.4455 0.5680
vn 0.5680 0.4455 0.6921
vn 0.4220 0.4455 0.7896
vn 0.2599 0.4455 0.8567
vn 0.0878 0.4455 0.8910
vn -0.0878 0.4455 0.8910
vn -0.2599 0.4455 0.8567
vn -0.4220 0.4455 0.7896
vn -0.5680 0.4455 0.6921
vn -0.6921 0.4455 0.5680
vn -0.7896 0.4455 0.4220
vn -0.8567 0.4455 0.2599
vn -0.8910 0.4455 0.0878
vn -0.8910 0.4455 -0.0878
vn -0.8567 0.4455 -0.2599
vn -0.7896 0.4455 -0.4220
vn -0.6921 0.4455 -0.5680
vn -0.5680 0.4455 -0.6921
vn -0.4220 0.4455 -0.7896
vn 0.0000 -1.0000 0.0000
vn -0.2599 0.4455 -0.8567
vn -0.0878 0.4455 -0.8910
s off
f 100/196/66 132/197/66 101/198/66
f 101/198/67 132/197/67 102/199/67
f 102/199/68 132/197/68 103/200/68
f 103/200/69 132/197/69 104/201/69
f 104/201/70 132/197/70 105/202/70
f 105/202/71 132/197/71 106/203/71
f 106/203/72 132/197/72 107/204/72
f 107/204/73 132/197/73 108/205/73
f 108/205/74 132/197/74 109/206/74
f 109/206/75 132/197/75 110/207/75
f 110/207/76 132/197/76 111/208/76
f 111/208/77 132/197/77 112/209/77
f 112/209/78 132/197/78 113/210/78
f 113/210/79 132/197/79 114/211/79
f 114/211/80 132/197/80 115/212/80
f 115/212/81 132/197/81 116/213/81
f 116/213/82 132/197/82 117/214/82
f 117/214/83 132/197/83 118/215/83
f 118/215/84 132/197/84 119/216/84
f 119/216/85 132/197/85 120/217/85
f 120/217/86 132/197/86 121/218/86
f 121/218/87 132/197/87 122/219/87
f 122/219/88 132/197/88 123/220/88
f 123/220/89 132/197/89 124/221/89
f 124/221/90 132/197/90 125/222/90
f 125/222/91 132/197/91 126/223/91
f 126/223/92 132/197/92 127/224/92
f 127/224/93 132/197/93 128/225/93
f 128/225/94 132/197/94 129/226/94
f 129/226/95 132/197/95 130/227/95
f 107/228/96 115/229/96 123/230/96
f 130/227/97 132/197/97 131/231/97
f 131/231/98 132/197/98 100/196/98
f 131/232/96 100/233/96 101/234/96
f 101/234/96 102/235/96 103/236/96
f 103/236/96 104/237/96 105/238/96
f 105/238/96 106/239/96 107/228/96
f 107/228/96 108/240/96 109/241/96
f 109/241/96 110/242/96 111/243/96
f 111/243/96 112/244/96 113/245/96
f 113/245/96 114/246/96 115/229/96
f 115/229/96 116/247/96 117/248/96
f 117/248/96 118/249/96 119/250/96
f 119/250/96 120/251/96 121/252/96
f 121/252/96 122/253/96 123/230/96
f 123/230/96 124/254/96 125/255/96
f 125/255/96 126/256/96 123/230/96
f 126/256/96 127/257/96 123/230/96
f 127/257/96 128/258/96 131/232/96
f 128/258/96 129/259/96 131/232/96
f 129/259/96 130/260/96 131/232/96
f 131/232/96 101/234/96 107/228/96
f 101/234/96 103/236/96 107/228/96
f 103/236/96 105/238/96 107/228/96
f 107/228/96 109/241/96 111/243/96
f 111/243/96 113/245/96 107/228/96
f 113/245/96 115/229/96 107/228/96
f 115/229/96 117/248/96 123/230/96
f 117/248/96 119/250/96 123/230/96
f 119/250/96 121/252/96 123/230/96
f 123/230/96 127/257/96 131/232/96
f 131/232/96 107/228/96 123/230/96
