# Blender v2.80 (sub 75) OBJ File: 'block_arrow.blend'
# www.blender.org
v -0.400000 2.000000 0.400000
v -0.400000 3.000000 0.400000
v -0.400000 2.000000 -0.400000
v -0.400000 3.000000 -0.400000
v 0.400000 2.000000 0.400000
v 0.400000 3.000000 0.400000
v 0.400000 2.000000 -0.400000
v 0.400000 3.000000 -0.400000
v 0.000000 0.000000 -0.200000
v 0.000000 2.000000 -0.200000
v 0.039018 0.000000 -0.196157
v 0.039018 2.000000 -0.196157
v 0.076537 0.000000 -0.184776
v 0.076537 2.000000 -0.184776
v 0.111114 0.000000 -0.166294
v 0.111114 2.000000 -0.166294
v 0.141421 0.000000 -0.141421
v 0.141421 2.000000 -0.141421
v 0.166294 0.000000 -0.111114
v 0.166294 2.000000 -0.111114
v 0.184776 0.000000 -0.076537
v 0.184776 2.000000 -0.076537
v 0.196157 0.000000 -0.039018
v 0.196157 2.000000 -0.039018
v 0.200000 0.000000 0.000000
v 0.200000 2.000000 0.000000
v 0.196157 0.000000 0.039018
v 0.196157 2.000000 0.039018
v 0.184776 0.000000 0.076537
v 0.184776 2.000000 0.076537
v 0.166294 0.000000 0.111114
v 0.166294 2.000000 0.111114
v 0.141421 0.000000 0.141421
v 0.141421 2.000000 0.141421
v 0.111114 0.000000 0.166294
v 0.111114 2.000000 0.166294
v 0.076537 0.000000 0.184776
v 0.076537 2.000000 0.184776
v 0.039018 0.000000 0.196157
v 0.039018 2.000000 0.196157
v -0.000000 0.000000 0.200000
v -0.000000 2.000000 0.200000
v -0.039018 0.000000 0.196157
v -0.039018 2.000000 0.196157
v -0.076537 0.000000 0.184776
v -0.076537 2.000000 0.184776
v -0.111114 0.000000 0.166294
v -0.111114 2.000000 0.166294
v -0.141421 0.000000 0.141421
v -0.141421 2.000000 0.141421
v -0.166294 0.000000 0.111114
v -0.166294 2.000000 0.111114
v -0.184776 0.000000 0.076537
v -0.184776 2.000000 0.076537
v -0.196157 0.000000 0.039018
v -0.196157 2.000000 0.039018
v -0.200000 0.000000 -0.000000
v -0.200000 2.000000 -0.000000
v -0.196157 0.000000 -0.039018
v -0.196157 2.000000 -0.039018
v -0.184776 0.000000 -0.076537
v -0.184776 2.000000 -0.076537
v -0.166294 0.000000 -0.111114
v -0.166294 2.000000 -0.111114
v -0.141421 0.000000 -0.141421
v -0.141421 2.000000 -0.141421
v -0.111114 0.000000 -0.166294
v -0.111114 2.000000 -0.166294
v -0.076537 0.000000 -0.184776
v -0.076537 2.000000 -0.184776
v -0.039018 0.000000 -0.196157
v -0.039018 2.000000 -0.196157
v -0.119891 2.000000 0.119891
v 0.119891 2.000000 -0.119891
vn -1.0000 0.0000 0.0000
vn 0.0000 0.0000 -1.0000
vn 1.0000 0.0000 0.0000
vn 0.0000 0.0000 1.0000
vn 0.0000 -1.0000 0.0000
vn 0.0000 1.0000 0.0000
vn 0.0980 0.0000 -0.9952
vn 0.2903 0.0000 -0.9569
vn 0.4714 0.0000 -0.8819
vn 0.6344 0.0000 -0.7730
vn 0.7730 0.0000 -0.6344
vn 0.8819 0.0000 -0.4714
vn 0.9569 0.0000 -0.2903
vn 0.9952 0.0000 -0.0980
vn 0.9952 0.0000 0.0980
vn 0.9569 0.0000 0.2903
vn 0.8819 0.0000 0.4714
vn 0.7730 0.0000 0.6344
vn 0.6344 0.0000 0.7730
vn 0.4714 0.0000 0.8819
vn 0.2903 0.0000 0.9569
vn 0.0980 0.0000 0.9952
vn -0.0980 0.0000 0.9952
vn -0.2903 0.0000 0.9569
vn -0.4714 0.0000 0.8819
vn -0.6344 0.0000 0.7730
vn -0.7730 0.0000 0.6344
vn -0.8819 0.0000 0.4714
vn -0.9569 0.0000 0.2903
vn -0.9952 0.0000 0.0980
vn -0.9952 0.0000 -0.0980
vn -0.9569 0.0000 -0.2903
vn -0.8819 0.0000 -0.4714
vn -0.7730 0.0000 -0.6344
vn -0.6344 0.0000 -0.7730
vn -0.4714 0.0000 -0.8819
vn -0.2903 0.0000 -0.9569
vn -0.0980 0.0000 -0.9952
s off
f 2//1 3//1 1//1
f 4//2 7//2 3//2
f 8//3 5//3 7//3
f 6//4 1//4 5//4
f 7//5 12//5 10//5
f 4//6 6//6 8//6
f 10//7 11//7 9//7
f 12//8 13//8 11//8
f 14//9 15//9 13//9
f 16//10 17//10 15//10
f 18//11 19//11 17//11
f 20//12 21//12 19//12
f 22//13 23//13 21//13
f 24//14 25//14 23//14
f 26//15 27//15 25//15
f 28//16 29//16 27//16
f 30//17 31//17 29//17
f 32//18 33//18 31//18
f 34//19 35//19 33//19
f 36//20 37//20 35//20
f 38//21 39//21 37//21
f 40//22 41//22 39//22
f 42//23 43//23 41//23
f 44//24 45//24 43//24
f 46//25 47//25 45//25
f 48//26 49//26 47//26
f 50//27 51//27 49//27
f 52//28 53//28 51//28
f 54//29 55//29 53//29
f 56//30 57//30 55//30
f 58//31 59//31 57//31
f 60//32 61//32 59//32
f 62//33 63//33 61//33
f 64//34 65//34 63//34
f 66//35 67//35 65//35
f 68//36 69//36 67//36
f 70//37 71//37 69//37
f 72//38 9//38 71//38
f 23//5 39//5 55//5
f 1//5 44//5 42//5
f 2//1 4//1 3//1
f 4//2 8//2 7//2
f 8//3 6//3 5//3
f 6//4 2//4 1//4
f 7//5 5//5 26//5
f 7//5 26//5 24//5
f 60//5 58//5 3//5
f 62//5 60//5 3//5
f 7//5 24//5 22//5
f 7//5 22//5 20//5
f 64//5 62//5 3//5
f 66//5 64//5 3//5
f 7//5 20//5 18//5
f 7//5 18//5 16//5
f 68//5 66//5 3//5
f 70//5 68//5 3//5
f 7//5 16//5 14//5
f 7//5 14//5 12//5
f 70//5 3//5 72//5
f 3//5 7//5 10//5
f 72//5 3//5 10//5
f 4//6 2//6 6//6
f 10//7 12//7 11//7
f 12//8 14//8 13//8
f 14//9 16//9 15//9
f 16//10 18//10 17//10
f 18//11 20//11 19//11
f 20//12 22//12 21//12
f 22//13 24//13 23//13
f 24//14 26//14 25//14
f 26//15 28//15 27//15
f 28//16 30//16 29//16
f 30//17 32//17 31//17
f 32//18 34//18 33//18
f 34//19 36//19 35//19
f 36//20 38//20 37//20
f 38//21 40//21 39//21
f 40//22 42//22 41//22
f 42//23 44//23 43//23
f 44//24 46//24 45//24
f 46//25 48//25 47//25
f 48//26 50//26 49//26
f 50//27 52//27 51//27
f 52//28 54//28 53//28
f 54//29 56//29 55//29
f 56//30 58//30 57//30
f 58//31 60//31 59//31
f 60//32 62//32 61//32
f 62//33 64//33 63//33
f 64//34 66//34 65//34
f 66//35 68//35 67//35
f 68//36 70//36 69//36
f 70//37 72//37 71//37
f 72//38 10//38 9//38
f 71//5 9//5 11//5
f 11//5 13//5 15//5
f 15//5 17//5 19//5
f 19//5 21//5 23//5
f 23//5 25//5 27//5
f 27//5 29//5 31//5
f 31//5 33//5 35//5
f 35//5 37//5 39//5
f 39//5 41//5 43//5
f 43//5 45//5 47//5
f 47//5 49//5 51//5
f 51//5 53//5 55//5
f 55//5 57//5 59//5
f 59//5 61//5 55//5
f 61//5 63//5 55//5
f 63//5 65//5 71//5
f 65//5 67//5 71//5
f 67//5 69//5 71//5
f 71//5 11//5 23//5
f 11//5 15//5 23//5
f 15//5 19//5 23//5
f 23//5 27//5 31//5
f 31//5 35//5 23//5
f 35//5 39//5 23//5
f 39//5 43//5 55//5
f 43//5 47//5 55//5
f 47//5 51//5 55//5
f 55//5 63//5 71//5
f 71//5 23//5 55//5
f 28//5 26//5 5//5
f 1//5 3//5 58//5
f 1//5 58//5 56//5
f 30//5 28//5 5//5
f 32//5 30//5 5//5
f 1//5 56//5 54//5
f 1//5 54//5 52//5
f 34//5 32//5 5//5
f 36//5 34//5 5//5
f 1//5 52//5 50//5
f 1//5 50//5 48//5
f 38//5 36//5 5//5
f 40//5 38//5 5//5
f 1//5 48//5 46//5
f 1//5 46//5 44//5
f 40//5 5//5 42//5
f 5//5 1//5 42//5
v -0.400000 2.000000 0.400000
v -0.400000 3.000000 0.400000
v -0.400000 2.000000 -0.400000
v -0.400000 3.000000 -0.400000
v 0.400000 2.000000 0.400000
v 0.400000 3.000000 0.400000
v 0.400000 2.000000 -0.400000
v 0.400000 3.000000 -0.400000
vn -1.0000 0.0000 0.0000
vn 0.0000 0.0000 -1.0000
vn 1.0000 0.0000 0.0000
vn 0.0000 0.0000 1.0000
vn 0.0000 -1.0000 0.0000
vn 0.0000 1.0000 0.0000
s off
f 76//39 77//39 75//39
f 78//40 81//40 77//40
f 82//41 79//41 81//41
f 80//42 75//42 79//42
f 81//43 75//43 77//43
f 78//44 80//44 82//44
f 76//39 78//39 77//39
f 78//40 82//40 81//40
f 82//41 80//41 79//41
f 80//42 76//42 75//42
f 81//43 79//43 75//43
f 78//44 76//44 80//44
