# Blender v2.80 (sub 75) OBJ File: 'generator.blend'
# www.blender.org
mtllib generator.mtl
o Cube.003
v 0.452361 -1.758251 -0.089776
v 0.462174 -1.768064 -0.099589
v 0.452361 -1.828342 -0.089776
v 0.462174 -1.818529 -0.099589
v 0.462174 -1.768064 -0.140255
v 0.452361 -1.758251 -0.150068
v 0.452361 -1.828342 -0.150068
v 0.462174 -1.818529 -0.140255
v -0.377480 -1.768064 -0.099589
v -0.367667 -1.758251 -0.089776
v -0.367667 -1.828342 -0.089776
v -0.377480 -1.818529 -0.099589
v -0.377480 -1.768064 -0.140255
v -0.367667 -1.758251 -0.150068
v -0.377480 -1.818529 -0.140255
v -0.367667 -1.828342 -0.150068
vt 0.625000 0.752922
vt 0.375000 0.997078
vt 0.375000 0.752922
vt 0.409999 0.540688
vt 0.590001 0.709312
vt 0.409999 0.709312
vt 0.872078 0.500000
vt 0.627922 0.750000
vt 0.627922 0.500000
vt 0.590001 0.040688
vt 0.409999 0.209312
vt 0.409999 0.040688
vt 0.625000 0.252922
vt 0.375000 0.497078
vt 0.375000 0.252922
vt 0.127922 0.750000
vt 0.125000 0.540688
vt 0.127922 0.500000
vt 0.625000 0.997078
vt 0.409999 1.000000
vt 0.875000 0.709312
vt 0.872078 0.750000
vt 0.590001 0.209312
vt 0.590001 0.540688
vt 0.625000 0.497078
vt 0.372078 0.500000
vt 0.372078 0.750000
vt 0.125000 0.709312
vt 0.590001 1.000000
vt 0.875000 0.540688
vn 0.0000 0.0000 1.0000
vn -1.0000 0.0000 0.0000
vn 0.0000 -1.0000 0.0000
vn 1.0000 0.0000 0.0000
vn 0.0000 0.0000 -1.0000
vn 0.7071 0.7071 0.0000
vn 0.7071 0.0000 0.7071
vn 0.7071 -0.7071 0.0000
vn 0.7071 0.0000 -0.7071
vn -0.7071 0.0000 -0.7071
vn -0.7071 0.7071 0.0000
vn -0.7071 -0.7071 0.0000
vn -0.7071 0.0000 0.7071
vn 0.0000 1.0000 0.0000
g Cube.003_Cube.003_Material.002
usemtl Material.002
s off
f 11/1/1 1/2/1 10/3/1
f 13/4/2 12/5/2 9/6/2
f 7/7/3 11/8/3 16/9/3
f 4/10/4 5/11/4 2/12/4
f 7/13/5 14/14/5 6/15/5
f 1/16/6 5/17/6 6/18/6
f 3/19/7 2/20/7 1/2/7
f 7/7/8 4/21/8 3/22/8
f 6/15/9 8/23/9 7/13/9
f 15/24/10 14/14/10 16/25/10
f 14/26/11 9/6/11 10/27/11
f 11/8/12 15/24/12 16/9/12
f 10/3/13 12/5/13 11/1/13
f 14/26/14 1/16/14 6/18/14
f 11/1/1 3/19/1 1/2/1
f 13/4/2 15/24/2 12/5/2
f 7/7/3 3/22/3 11/8/3
f 4/10/4 8/23/4 5/11/4
f 7/13/5 16/25/5 14/14/5
f 1/16/6 2/28/6 5/17/6
f 3/19/7 4/29/7 2/20/7
f 7/7/8 8/30/8 4/21/8
f 6/15/9 5/11/9 8/23/9
f 15/24/10 13/4/10 14/14/10
f 14/26/11 13/4/11 9/6/11
f 11/8/12 12/5/12 15/24/12
f 10/3/13 9/6/13 12/5/13
f 14/26/14 10/27/14 1/16/14
o Cube.001
v 0.032536 -1.834418 -0.083868
v 0.032536 -1.764327 -0.083868
v -0.032886 -1.834418 -0.083868
v -0.032886 -1.764327 -0.083868
v -0.032886 -1.834418 -0.148382
v -0.032886 -1.764327 -0.148382
v 0.032536 -1.834418 -0.148382
v 0.032536 -1.764327 -0.148382
v 0.050000 -0.041090 0.025608
v 0.050000 -0.041090 -0.041204
v -0.050000 -0.041090 0.025608
v -0.050000 -0.041090 -0.041204
v 0.050000 -1.621286 -0.082626
v 0.050000 -1.577503 -0.073431
v 0.050000 -1.598429 -0.105483
v 0.050000 -1.607054 -0.081395
v 0.050000 -1.591028 -0.078029
v 0.050000 -1.577503 -0.140244
v 0.050000 -1.621286 -0.149439
v 0.050000 -1.598429 -0.126582
v 0.050000 -1.591028 -0.144841
v 0.050000 -1.607054 -0.148207
v -0.050000 -1.577503 -0.073431
v -0.050000 -1.621286 -0.082626
v -0.050000 -1.598429 -0.105483
v -0.050000 -1.591028 -0.078029
v -0.050000 -1.607054 -0.081395
v -0.050000 -1.621286 -0.149439
v -0.050000 -1.577503 -0.140244
v -0.050000 -1.598429 -0.126582
v -0.050000 -1.607054 -0.148207
v -0.050000 -1.591028 -0.144841
v 0.050000 -1.373034 0.016413
v 0.050000 -1.329251 0.025608
v 0.050000 -1.352108 0.002751
v 0.050000 -1.359508 0.021011
v 0.050000 -1.343483 0.024377
v -0.050000 -1.373034 -0.050399
v -0.050000 -1.329251 -0.041204
v -0.050000 -1.352108 -0.018347
v -0.050000 -1.359508 -0.045801
v -0.050000 -1.343483 -0.042436
v 0.050000 -1.329250 -0.041204
v 0.050000 -1.373034 -0.050399
v 0.050000 -1.352108 -0.018347
v 0.050000 -1.343482 -0.042436
v 0.050000 -1.359508 -0.045801
v -0.050000 -1.329250 0.025608
v -0.050000 -1.373034 0.016413
v -0.050000 -1.352108 0.002751
v -0.050000 -1.343482 0.024377
v -0.050000 -1.359508 0.021011
v 0.033632 -2.070073 -0.098994
v 0.050000 -2.053705 -0.082626
v 0.050000 -2.053705 -0.149439
v 0.033632 -2.070073 -0.133071
v -0.033632 -2.070073 -0.098994
v -0.050000 -2.053705 -0.082626
v -0.050000 -2.053705 -0.149439
v -0.033632 -2.070073 -0.133071
v 0.050000 -1.834418 -0.082626
v 0.035400 -1.834418 -0.082626
v 0.050000 -1.834418 -0.149439
v 0.050000 -1.764327 -0.082626
v 0.050000 -1.764327 -0.149439
v 0.034350 -1.764327 -0.149439
v -0.035804 -1.764327 -0.082626
v -0.050000 -1.764327 -0.149439
v -0.050000 -1.834418 -0.149439
v -0.034734 -1.834418 -0.149439
v -0.050000 -1.764327 -0.082626
v -0.050000 -1.834418 -0.148313
v 0.050000 -1.834418 -0.148313
v -0.050000 -1.764327 -0.148313
v 0.050000 -1.764327 -0.148313
v 0.050000 -1.764327 -0.088021
v -0.050000 -1.764327 -0.088021
v -0.050000 -1.834418 -0.082626
v 0.050000 -1.834418 -0.088021
v -0.050000 -1.834418 -0.088021
vt 0.625000 0.526332
vt 0.875000 0.543680
vt 0.875000 0.526332
vt 0.314920 0.715245
vt 0.309553 0.712140
vt 0.189231 0.712140
vt 0.375000 0.206320
vt 0.625000 0.223668
vt 0.625000 0.206320
vt 0.125000 0.526332
vt 0.375000 0.543680
vt 0.375000 0.526332
vt 0.625000 0.543680
vt 0.625000 0.166185
vt 0.539473 0.163877
vt 0.375000 0.166185
vt 0.161499 0.529457
vt 0.375000 0.529457
vt 0.375000 0.502046
vt 0.625000 0.750000
vt 0.375000 1.000000
vt 0.375000 0.750000
vt 0.875000 0.588980
vt 0.625000 0.588980
vt 0.539473 0.586123
vt 0.460527 0.586123
vt 0.625000 0.583815
vt 0.875000 0.561263
vt 0.625000 0.561264
vt 0.125000 0.583815
vt 0.375000 0.561263
vt 0.125000 0.561263
vt 0.539473 0.558955
vt 0.460527 0.558955
vt 0.375000 0.556098
vt 0.625000 0.556098
vt 0.125000 0.750000
vt 0.375000 0.588980
vt 0.125000 0.588980
vt 0.436245 0.459081
vt 0.563755 0.290919
vt 0.436245 0.290919
vt 0.625000 0.161020
vt 0.625000 0.000000
vt 0.375000 0.161020
vt 0.375000 0.193902
vt 0.460527 0.191045
vt 0.375000 0.192123
vt 0.375000 0.191045
vt 0.375000 0.191045
vt 0.625000 0.188737
vt 0.539473 0.191045
vt 0.625000 0.190174
vt 0.620390 0.191045
vt 0.625000 0.191045
vt 0.375000 0.559826
vt 0.375000 0.558208
vt 0.375000 0.556843
vt 0.625000 0.557877
vt 0.625000 0.559881
vt 0.625000 0.561571
vt 0.125000 0.585194
vt 0.125000 0.585252
vt 0.125000 0.586123
vt 0.125000 0.586123
vt 0.625000 0.585252
vt 0.625000 0.586870
vt 0.625000 0.588236
vt 0.875000 0.586123
vt 0.875000 0.587201
vt 0.875000 0.586123
vt 0.875000 0.586123
vt 0.375000 0.587201
vt 0.375000 0.585198
vt 0.375000 0.583507
vt 0.875000 0.559826
vt 0.875000 0.557877
vt 0.625000 0.559826
vt 0.875000 0.556098
vt 0.375000 0.557877
vt 0.125000 0.559826
vt 0.125000 0.557877
vt 0.875000 0.585252
vt 0.625000 0.587201
vt 0.875000 0.583815
vt 0.375000 0.585252
vt 0.125000 0.587201
vt 0.375000 0.583815
vt 0.663164 0.529457
vt 0.875000 0.529457
vt 0.875000 0.502046
vt 0.625000 0.247954
vt 0.334081 0.500000
vt 0.125000 0.502046
vt 0.834081 0.500000
vt 0.625000 0.502046
vt 0.563755 0.459081
vt 0.625000 0.220543
vt 0.625000 0.211782
vt 0.375000 0.220543
vt 0.277496 0.750000
vt 0.247721 0.500000
vt 0.247721 0.750000
vt 0.722504 0.750000
vt 0.752279 0.500000
vt 0.722504 0.500000
vt 0.375000 0.877279
vt 0.625000 0.847504
vt 0.375000 0.847504
vt 0.125000 0.538218
vt 0.339510 0.538218
vt 0.125000 0.556098
vt 0.658972 0.548214
vt 0.658972 0.715245
vt 0.690447 0.712140
vt 0.625000 0.538218
vt 0.835876 0.538218
vt 0.842887 0.548214
vt 0.810769 0.712140
vt 0.842887 0.715245
vt 0.375000 0.402496
vt 0.625000 0.372721
vt 0.375000 0.372721
vt 0.341028 0.548214
vt 0.341028 0.715245
vt 0.189231 0.550856
vt 0.157113 0.548214
vt 0.185895 0.548214
vt 0.157113 0.715245
vt 0.375000 0.223668
vt 0.125000 0.543680
vt 0.460527 0.163877
vt 0.375000 0.188737
vt 0.125000 0.529457
vt 0.625000 1.000000
vt 0.875000 0.750000
vt 0.375000 0.538218
vt 0.625000 0.529457
vt 0.375000 0.000000
vt 0.375000 0.247954
vt 0.165919 0.500000
vt 0.665919 0.500000
vt 0.625000 0.193902
vt 0.375000 0.211782
vt 0.277496 0.500000
vt 0.752279 0.750000
vt 0.625000 0.877279
vt 0.816036 0.715245
vt 0.690447 0.550856
vt 0.687048 0.548214
vt 0.875000 0.538218
vt 0.810769 0.550856
vt 0.625000 0.402496
vt 0.309553 0.550856
vn 0.0000 -0.0000 -1.0000
vn 0.0000 -1.0000 0.0000
vn 1.0000 -0.0000 0.0000
vn 0.0000 0.0000 1.0000
vn -1.0000 0.0000 0.0000
vn 0.0000 0.4023 -0.9155
vn 0.0000 -0.4023 0.9155
vn 0.0000 0.3218 -0.9468
vn 0.0000 0.2055 -0.9787
vn 0.0000 0.0862 -0.9963
vn 0.0000 -0.3218 0.9468
vn 0.0000 -0.2055 0.9787
vn 0.0000 -0.0862 0.9963
vn 0.7071 -0.7071 0.0000
vn 0.0000 -0.7071 0.7071
vn 0.0000 -0.7071 -0.7071
vn -0.7071 -0.7071 0.0000
vn 0.0000 1.0000 -0.0000
vn 0.0000 1.0000 0.0002
vn 0.0000 1.0000 -0.0002
g Cube.001_Cube.001_Material.002
usemtl Material.002
s off
f 21/31/15 24/32/15 23/33/15
f 83/34/16 20/35/16 18/36/16
f 18/37/17 23/38/17 24/39/17
f 17/40/18 20/41/18 19/42/18
f 19/42/19 22/43/19 21/31/19
f 60/44/17 61/45/17 49/46/17
f 78/47/18 94/48/18 74/49/18
f 28/50/16 25/51/16 27/52/16
f 28/50/15 59/53/15 55/54/15
f 55/54/19 56/55/19 66/56/19
f 54/57/20 34/58/20 45/59/20
f 49/60/21 39/61/21 30/62/21
f 45/59/19 46/63/19 41/64/19
f 40/65/19 46/63/19 44/66/19
f 25/67/18 64/68/18 50/69/18
f 73/70/16 72/71/16 69/72/16
f 59/73/17 26/74/17 50/75/17
f 29/76/17 31/77/17 32/78/17
f 32/78/17 31/77/17 33/79/17
f 33/79/17 31/77/17 30/80/17
f 34/81/17 36/82/17 37/83/17
f 37/83/17 36/82/17 38/84/17
f 38/84/17 36/82/17 35/85/17
f 39/61/19 41/64/19 42/86/19
f 42/86/19 41/64/19 43/87/19
f 43/87/19 41/64/19 40/88/19
f 44/66/19 46/63/19 47/89/19
f 47/89/19 46/63/19 48/90/19
f 48/90/19 46/63/19 45/91/19
f 49/60/17 51/92/17 52/93/17
f 52/93/17 51/92/17 53/94/17
f 53/94/17 51/92/17 50/95/17
f 54/57/19 56/55/19 57/96/19
f 57/96/19 56/55/19 58/97/19
f 58/97/19 56/55/19 55/98/19
f 59/53/17 61/99/17 62/100/17
f 62/100/17 61/99/17 63/101/17
f 63/101/17 61/99/17 60/102/17
f 64/68/19 66/56/19 67/103/19
f 67/103/19 66/56/19 68/104/19
f 68/104/19 66/56/19 65/105/19
f 37/106/22 45/59/22 34/58/22
f 38/107/23 48/108/23 37/106/23
f 35/109/24 47/89/24 38/107/24
f 42/86/25 30/62/25 39/61/25
f 43/110/26 33/111/26 42/86/26
f 40/65/27 32/112/27 43/110/27
f 62/100/24 55/54/24 59/53/24
f 63/113/23 58/114/23 62/100/23
f 60/115/22 57/96/22 63/113/22
f 67/103/27 50/69/27 64/68/27
f 68/116/26 53/117/26 67/103/26
f 65/118/25 52/93/25 68/116/25
f 86/119/15 79/120/15 71/121/15
f 71/122/28 69/72/28 72/71/28
f 73/123/29 70/124/29 74/49/29
f 72/125/30 75/126/30 71/121/30
f 76/127/31 74/49/31 75/126/31
f 79/128/17 81/129/17 77/130/17
f 93/131/16 91/132/16 92/133/16
f 96/134/32 89/135/32 88/136/32
f 92/137/15 96/138/15 93/139/15
f 78/47/18 80/140/18 83/141/18
f 83/141/18 29/142/18 40/65/18
f 85/143/32 94/144/32 19/145/32
f 86/119/15 84/146/15 82/147/15
f 82/147/15 44/66/15 35/109/15
f 79/148/32 17/149/32 77/150/32
f 90/151/18 89/152/18 91/153/18
f 84/154/16 20/35/16 87/155/16
f 21/31/15 22/43/15 24/32/15
f 18/36/16 24/156/16 81/157/16
f 24/156/16 82/158/16 81/157/16
f 81/157/16 80/159/16 18/36/16
f 80/159/16 83/34/16 18/36/16
f 18/37/17 17/160/17 23/38/17
f 17/40/18 18/161/18 20/41/18
f 19/42/19 20/41/19 22/43/19
f 51/162/17 49/46/17 61/45/17
f 49/46/17 30/163/17 60/44/17
f 30/163/17 31/77/17 34/81/17
f 31/77/17 36/82/17 34/81/17
f 34/81/17 60/44/17 30/163/17
f 74/49/18 70/124/18 78/47/18
f 70/124/18 77/164/18 78/47/18
f 28/50/16 26/165/16 25/51/16
f 28/50/15 26/166/15 59/53/15
f 66/56/19 64/68/19 55/54/19
f 64/68/19 27/52/19 55/54/19
f 27/52/19 28/50/19 55/54/19
f 54/57/20 60/115/20 34/58/20
f 49/60/21 65/118/21 39/61/21
f 41/64/19 39/61/19 45/59/19
f 39/61/19 65/118/19 54/57/19
f 65/118/19 66/56/19 56/55/19
f 56/55/19 54/57/19 65/118/19
f 54/57/19 45/59/19 39/61/19
f 75/126/19 74/49/19 94/48/19
f 87/167/19 40/65/19 44/66/19
f 40/65/19 41/64/19 46/63/19
f 75/126/19 94/48/19 85/168/19
f 94/48/19 87/167/19 85/168/19
f 44/66/19 84/146/19 87/167/19
f 84/146/19 85/168/19 87/167/19
f 25/67/18 27/52/18 64/68/18
f 73/70/16 76/127/16 72/71/16
f 26/74/17 25/169/17 50/75/17
f 50/75/17 51/162/17 61/45/17
f 61/45/17 59/73/17 50/75/17
f 37/106/22 48/108/22 45/59/22
f 38/107/23 47/89/23 48/108/23
f 35/109/24 44/66/24 47/89/24
f 42/86/25 33/111/25 30/62/25
f 43/110/26 32/112/26 33/111/26
f 40/65/27 29/142/27 32/112/27
f 62/100/24 58/114/24 55/54/24
f 63/113/23 57/96/23 58/114/23
f 60/115/22 54/57/22 57/96/22
f 67/103/27 53/117/27 50/69/27
f 68/116/26 52/93/26 53/117/26
f 65/118/25 49/60/25 52/93/25
f 71/121/15 75/126/15 86/119/15
f 75/126/15 85/168/15 86/119/15
f 71/122/28 70/170/28 69/72/28
f 73/123/29 69/171/29 70/124/29
f 72/125/30 76/172/30 75/126/30
f 76/127/31 73/70/31 74/49/31
f 31/77/17 29/76/17 35/173/17
f 29/76/17 80/174/17 35/173/17
f 77/130/17 70/170/17 79/128/17
f 70/170/17 71/122/17 79/128/17
f 80/174/17 77/130/17 81/129/17
f 35/173/17 80/174/17 81/129/17
f 35/173/17 36/82/17 31/77/17
f 93/131/16 90/175/16 91/132/16
f 96/134/32 95/176/32 89/135/32
f 92/137/15 95/177/15 96/138/15
f 87/167/18 94/48/18 83/141/18
f 94/48/18 78/47/18 83/141/18
f 78/47/18 77/164/18 80/140/18
f 40/65/18 87/167/18 83/141/18
f 83/141/18 80/140/18 29/142/18
f 94/144/32 78/178/32 19/145/32
f 78/178/33 17/149/33 19/145/33
f 19/145/32 21/179/32 85/143/32
f 21/179/33 86/180/33 85/143/33
f 81/181/15 79/120/15 82/147/15
f 79/120/15 86/119/15 82/147/15
f 86/119/15 85/168/15 84/146/15
f 35/109/15 81/181/15 82/147/15
f 82/147/15 84/146/15 44/66/15
f 79/148/34 86/180/34 23/182/34
f 86/180/32 21/179/32 23/182/32
f 23/182/32 17/149/32 79/148/32
f 17/149/33 78/178/33 77/150/33
f 90/151/18 88/183/18 89/152/18
f 84/154/16 82/158/16 22/184/16
f 82/158/16 24/156/16 22/184/16
f 22/184/16 20/35/16 84/154/16
f 20/35/16 83/34/16 87/155/16
o Cube.002
v 0.400000 0.013924 -0.400000
v 0.400000 0.013924 0.400000
v -0.400000 0.013924 -0.400000
v -0.400000 0.013924 0.400000
v 0.376891 -0.086076 -0.376891
v 0.400000 -0.062967 -0.400000
v 0.376891 -0.086076 0.376891
v 0.400000 -0.062967 0.400000
v -0.376891 -0.086076 -0.376891
v -0.400000 -0.062967 -0.400000
v -0.400000 -0.062967 0.400000
v -0.376891 -0.086076 0.376891
vt 0.617778 0.257222
vt 0.382222 0.492778
vt 0.382222 0.257222
vt 0.875000 0.557773
vt 0.625000 0.750000
vt 0.625000 0.557773
vt 0.375000 1.000000
vt 0.375000 0.750000
vt 0.625000 0.000000
vt 0.375000 0.192227
vt 0.375000 0.000000
vt 0.375000 0.557773
vt 0.625000 0.192227
vt 0.125000 0.557773
vt 0.367778 0.500000
vt 0.867778 0.500000
vt 0.617778 0.492778
vt 0.125000 0.750000
vt 0.875000 0.750000
vt 0.625000 1.000000
vt 0.132222 0.500000
vt 0.632222 0.500000
vn 0.0000 -1.0000 0.0000
vn 0.0000 0.0000 1.0000
vn 0.0000 1.0000 -0.0000
vn 1.0000 0.0000 0.0000
vn -1.0000 0.0000 0.0000
vn 0.7071 -0.7071 0.0000
vn 0.0000 -0.7071 -0.7071
vn 0.0000 -0.7071 0.7071
vn -0.7071 -0.7071 0.0000
vn 0.0000 0.0000 -1.0000
g Cube.002_Cube.002_Material.002
usemtl Material.002
s off
f 103/185/35 105/186/35 101/187/35
f 104/188/36 100/189/36 107/190/36
f 100/189/37 97/191/37 99/192/37
f 98/193/38 102/194/38 97/195/38
f 107/190/39 99/192/39 106/196/39
f 101/187/40 104/197/40 103/185/40
f 102/198/41 105/199/41 106/196/41
f 107/190/42 103/200/42 104/188/42
f 106/196/43 108/201/43 107/190/43
f 106/196/44 97/202/44 102/198/44
f 103/185/35 108/201/35 105/186/35
f 104/188/36 98/203/36 100/189/36
f 100/189/37 98/204/37 97/191/37
f 98/193/38 104/197/38 102/194/38
f 107/190/39 100/189/39 99/192/39
f 101/187/40 102/194/40 104/197/40
f 102/198/41 101/205/41 105/199/41
f 107/190/42 108/206/42 103/200/42
f 106/196/43 105/186/43 108/201/43
f 106/196/44 99/192/44 97/202/44
o Cube.004
v 0.084498 -0.051689 -0.066239
v 0.084498 -0.051689 0.057846
v 0.084498 -0.364835 -0.066239
v 0.084498 -0.364835 0.057846
v -0.084498 -0.051689 -0.066239
v -0.084498 -0.051689 0.057846
v -0.084498 -0.364835 -0.066239
v -0.084498 -0.364835 0.057846
v 0.051500 -0.051689 -0.042010
v -0.051500 -0.364835 -0.042010
v 0.051500 -0.364835 0.026503
v 0.051500 -0.364835 0.026503
v 0.054701 -0.364835 0.029543
v 0.047085 -0.051689 0.026503
v 0.051500 -0.051689 0.022088
v 0.047085 -0.364835 -0.042314
v 0.051500 -0.364835 -0.037900
v 0.051500 -0.051689 -0.042010
v 0.047085 -0.051689 -0.042314
v -0.051500 -0.364835 -0.042010
v -0.047085 -0.364835 -0.042314
v -0.047085 -0.051689 -0.042314
v -0.051500 -0.051689 -0.037900
v -0.047085 -0.364835 0.026503
v -0.051500 -0.364835 0.022088
v -0.051500 -0.051689 0.026503
v -0.051500 -0.051689 0.026503
v -0.054701 -0.051689 0.029543
vt 0.625000 0.000000
vt 0.375000 0.250000
vt 0.375000 0.000000
vt 0.135715 0.740314
vt 0.364285 0.701171
vt 0.125000 0.701171
vt 0.625000 0.500000
vt 0.375000 0.750000
vt 0.375000 0.500000
vt 0.391037 0.701171
vt 0.608963 0.740314
vt 0.623896 0.701171
vt 0.125000 0.750000
vt 0.125000 0.500000
vt 0.875000 0.500000
vt 0.625000 0.750000
vt 0.635715 0.740314
vt 0.864285 0.701171
vt 0.635715 0.701171
vt 0.423203 0.444654
vt 0.552957 0.451185
vt 0.561851 0.444654
vt 0.423203 0.805346
vt 0.375000 1.000000
vt 0.625000 1.000000
vt 0.552957 0.951185
vt 0.561851 0.944654
vt 0.561851 0.298815
vt 0.561851 0.298815
vt 0.567977 0.294080
vt 0.561851 0.798815
vt 0.561851 0.798815
vt 0.567977 0.794080
vt 0.623896 0.009686
vt 0.625000 0.048829
vt 0.625000 0.009686
vt 0.375000 0.740314
vt 0.125000 0.740314
vt 0.125000 0.701171
vt 0.391038 0.009686
vt 0.608962 0.048829
vt 0.625000 0.250000
vt 0.375000 0.740314
vt 0.623896 0.701171
vt 0.875000 0.750000
vt 0.864285 0.740314
vt 0.432097 0.298815
vt 0.423815 0.451185
vt 0.423815 0.451185
vt 0.423203 0.305346
vt 0.432097 0.798815
vt 0.423815 0.951185
vt 0.423815 0.951185
vt 0.423203 0.944654
vt 0.125000 0.740314
vt 0.375000 0.048829
vt 0.623896 0.009686
vn 1.0000 -0.0000 0.0000
vn 0.0000 0.0000 1.0000
vn -1.0000 0.0000 0.0000
vn 0.0000 -0.0000 -1.0000
vn 0.0000 -1.0000 -0.0000
vn 0.0000 1.0000 -0.0000
vn 0.0687 -0.0000 -0.9976
vn -0.7071 -0.0100 0.7071
vn -0.7071 0.0093 -0.7071
vn 0.7071 -0.0093 -0.7071
vn 0.7071 0.0100 0.7071
vn -0.0687 -0.0000 -0.9976
g Cube.004_Cube.004_Material.002
usemtl Material.002
s off
f 110/207/45 111/208/45 109/209/45
f 122/210/46 132/211/46 119/212/46
f 116/213/47 113/214/47 115/215/47
f 133/216/47 131/217/47 128/218/47
f 115/215/48 109/219/48 111/220/48
f 112/221/46 114/222/46 116/213/46
f 130/223/48 124/224/48 129/225/48
f 129/226/49 115/215/49 111/208/49
f 116/213/49 133/227/49 132/228/49
f 113/214/50 130/229/50 109/230/50
f 110/231/50 123/232/50 122/233/50
f 119/234/46 120/235/46 121/236/46
f 134/237/46 135/238/46 136/239/46
f 126/240/51 124/241/51 127/242/51
f 132/211/52 134/243/52 133/216/52
f 119/212/46 122/244/46 120/245/46
f 130/223/53 128/218/53 131/217/53
f 123/246/45 125/247/45 126/240/45
f 110/207/45 112/248/45 111/208/45
f 122/210/46 134/243/46 132/211/46
f 116/213/47 114/222/47 113/214/47
f 133/216/47 135/249/47 131/217/47
f 128/218/46 118/250/46 133/216/46
f 115/215/48 113/214/48 109/219/48
f 112/221/46 110/251/46 114/222/46
f 130/223/48 127/252/48 124/224/48
f 111/208/49 112/248/49 121/236/49
f 121/236/49 120/235/49 125/253/49
f 111/208/49 121/236/49 125/253/49
f 128/254/46 118/255/46 115/215/46
f 129/226/49 128/254/49 115/215/49
f 111/208/49 125/253/49 124/256/49
f 124/256/49 129/226/49 111/208/49
f 116/213/49 115/215/49 133/227/49
f 115/215/49 118/255/49 133/227/49
f 121/236/49 112/248/49 132/228/49
f 112/248/49 116/213/49 132/228/49
f 132/228/49 119/234/49 121/236/49
f 113/214/50 114/222/50 136/239/50
f 136/239/50 135/238/50 131/257/50
f 113/214/50 136/239/50 131/257/50
f 126/258/46 117/259/46 109/230/46
f 127/260/50 126/258/50 109/230/50
f 113/214/50 131/257/50 130/229/50
f 130/229/50 127/260/50 109/230/50
f 110/231/50 109/230/50 123/232/50
f 109/230/50 117/259/50 123/232/50
f 136/239/50 114/222/50 122/233/50
f 114/222/50 110/231/50 122/233/50
f 122/233/50 134/237/50 136/239/50
f 126/240/54 125/247/54 124/241/54
f 132/211/46 135/249/46 134/243/46
f 119/212/55 123/261/55 122/244/55
f 130/223/56 129/225/56 128/218/56
f 123/246/45 120/262/45 125/247/45
f 126/240/46 117/263/46 123/246/46
