# Blender v2.80 (sub 75) OBJ File: 'pillar1.blend'
# www.blender.org
mtllib pillar1.mtl
o Cube
v 0.875711 1.924985 0.628632
v 0.767822 2.360569 -0.023404
v -0.152770 3.224535 -0.941595
v -1.000000 0.000000 1.000000
v -1.000000 0.000000 -1.000000
v 1.000000 0.000000 1.000000
v 1.000000 0.000000 -1.000000
v 1.000000 6.809776 1.000000
v 0.380066 8.000000 1.000000
v -0.442107 6.995039 -1.000000
v 0.613181 8.000000 -0.409523
v -1.000000 8.000000 -0.693117
v -1.000000 7.238428 -1.000000
v 1.000000 7.322439 -0.614551
v 1.000000 6.882825 -0.791698
v -1.000000 5.984128 -0.615512
v 1.000000 5.984128 -0.313567
v -0.149461 6.913345 -0.981472
v -1.000000 6.706813 -1.000000
v -0.200506 6.933685 -1.000000
v -1.000000 5.806907 -1.000000
v 1.000000 5.667732 -1.000000
v 0.293839 5.011522 1.000000
v -1.000000 4.895614 0.837362
v -1.000000 4.947459 1.000000
v -1.000000 4.433675 1.000000
v -0.357990 8.000000 1.000000
v -1.000000 8.000000 0.299217
v -1.000000 7.123891 1.000000
v -0.108294 3.260050 -1.000000
v -0.088343 3.529860 -1.000000
v -0.134889 3.212963 -1.000000
v -0.245878 3.139559 -1.000000
v -1.000000 4.153999 -0.374376
v -1.000000 3.845134 -0.361831
v -0.152829 4.663625 -1.000000
v -1.000000 5.289492 -0.970591
v -1.000000 5.320916 -1.000000
v -0.877248 5.246700 -1.000000
v -1.000000 3.064825 -0.678957
v -1.000000 2.816782 -1.000000
v 1.000000 1.440311 -0.671120
v 0.473829 1.643288 -1.000000
v 1.000000 1.643288 -1.000000
v 1.000000 0.968832 -1.000000
v -1.000000 1.582811 1.000000
v -1.000000 2.754009 0.543601
v -1.000000 2.911369 1.000000
v 0.037859 2.911369 1.000000
v 0.733351 2.555863 1.000000
v 1.000000 2.868396 1.000000
v 1.000000 3.446408 -1.000000
v 0.742108 3.144138 -1.000000
v 1.000000 2.915085 -1.000000
v 1.000000 1.900792 0.962377
v 1.000000 1.917355 1.000000
v 0.814263 2.173072 1.000000
v 1.000000 1.855454 0.628632
v 0.870352 2.635029 0.326080
v 0.814014 2.484220 1.000000
v 0.767822 2.360569 1.000000
v 1.000000 1.900792 0.294888
v 1.000000 2.123165 -0.210240
v 1.000000 2.360569 -0.377354
v 1.000000 2.593965 -0.268422
v 1.000000 2.651370 -0.115128
vn 0.7833 0.5689 -0.2505
vn 0.9707 0.2404 0.0000
vn 0.7952 -0.5678 0.2126
vn 0.9368 -0.3499 0.0000
vn -0.5808 -0.0330 -0.8134
vn -0.8114 0.0600 -0.5814
vn -1.0000 0.0000 0.0000
vn 0.0000 0.0000 -1.0000
vn 1.0000 0.0000 0.0000
vn 0.0000 0.0000 1.0000
vn 0.0000 -1.0000 0.0000
vn 0.0000 1.0000 0.0000
vn 0.2296 0.9042 0.3600
vn 0.8775 0.4571 0.1451
vn 0.0631 0.9064 -0.4178
vn 0.1609 0.3689 -0.9154
vn 0.1321 -0.4656 -0.8751
vn -0.1467 0.3285 0.9330
vn 0.0471 -0.9517 0.3034
vn -0.6487 0.4754 0.5943
vn -0.3372 0.3545 -0.8722
vn -0.3208 0.7495 -0.5791
vn -0.3504 -0.4354 -0.8292
vn -0.3818 -0.6315 -0.6748
vn -0.8182 0.4621 -0.3420
vn -0.5232 0.7911 -0.3169
vn 0.5914 0.4614 -0.6614
vn 0.0000 -0.8510 -0.5252
vn -0.4215 0.3293 0.8449
vn 0.0000 -0.9454 0.3260
vn 0.6482 0.7298 0.2175
vn 0.7477 -0.6379 -0.1844
vn 0.7800 0.3602 0.5117
vn 0.7833 0.5689 0.2505
vn 0.8100 -0.2480 0.5314
vn 0.4848 0.8666 -0.1177
vn 0.4848 0.8666 0.1177
usemtl Material.001
s off
f 57//1 55//1 1//1
f 1//2 61//2 57//2
f 2//3 66//3 59//3
f 59//4 61//4 2//4
f 36//5 3//5 34//5
f 3//6 31//6 30//6
f 28//7 16//7 34//7
f 43//8 30//8 31//8
f 62//9 58//9 6//9
f 8//10 9//10 23//10
f 7//11 4//11 5//11
f 27//12 11//12 28//12
f 10//13 18//13 20//13
f 11//14 8//14 14//14
f 19//8 10//8 20//8
f 16//15 22//15 21//15
f 12//16 11//16 18//16
f 16//17 20//17 18//17
f 23//18 24//18 26//18
f 24//19 23//19 25//19
f 28//20 29//20 27//20
f 35//21 3//21 40//21
f 40//22 33//22 41//22
f 39//23 34//23 37//23
f 39//24 37//24 38//24
f 32//25 3//25 30//25
f 33//26 3//26 32//26
f 43//27 42//27 45//27
f 42//28 43//28 44//28
f 49//29 47//29 46//29
f 47//30 49//30 48//30
f 59//31 66//31 53//31
f 17//9 14//9 8//9
f 53//32 51//32 50//32
f 64//33 2//33 63//33
f 2//34 62//34 63//34
f 65//35 2//35 64//35
f 58//36 1//36 55//36
f 62//37 1//37 58//37
f 57//1 56//1 55//1
f 1//2 2//2 61//2
f 2//3 65//3 66//3
f 59//4 60//4 61//4
f 31//5 3//5 36//5
f 3//5 35//5 34//5
f 5//7 4//7 47//7
f 4//7 46//7 47//7
f 47//7 48//7 26//7
f 40//7 41//7 5//7
f 35//7 40//7 47//7
f 40//7 5//7 47//7
f 47//7 26//7 24//7
f 24//7 25//7 29//7
f 47//7 24//7 34//7
f 35//7 47//7 34//7
f 24//7 29//7 28//7
f 28//7 12//7 16//7
f 12//7 13//7 19//7
f 16//7 12//7 19//7
f 16//7 21//7 37//7
f 21//7 38//7 37//7
f 24//7 28//7 34//7
f 16//7 37//7 34//7
f 7//8 5//8 43//8
f 5//8 41//8 33//8
f 5//8 33//8 43//8
f 43//8 45//8 7//8
f 54//8 44//8 53//8
f 44//8 43//8 53//8
f 22//8 52//8 53//8
f 43//8 33//8 32//8
f 22//8 53//8 36//8
f 53//8 43//8 31//8
f 36//8 53//8 31//8
f 38//8 21//8 39//8
f 21//8 22//8 36//8
f 39//8 21//8 36//8
f 43//8 32//8 30//8
f 6//9 7//9 62//9
f 7//9 45//9 42//9
f 42//9 44//9 54//9
f 7//9 42//9 63//9
f 62//9 7//9 63//9
f 55//9 56//9 6//9
f 58//9 55//9 6//9
f 42//9 54//9 64//9
f 63//9 42//9 64//9
f 54//9 66//9 65//9
f 54//9 65//9 64//9
f 4//10 6//10 49//10
f 6//10 56//10 57//10
f 6//10 57//10 49//10
f 49//10 46//10 4//10
f 26//10 48//10 49//10
f 29//10 25//10 27//10
f 25//10 23//10 27//10
f 23//10 26//10 49//10
f 61//10 60//10 50//10
f 49//10 57//10 61//10
f 23//10 49//10 50//10
f 49//10 61//10 50//10
f 50//10 51//10 23//10
f 51//10 8//10 23//10
f 9//10 27//10 23//10
f 7//11 6//11 4//11
f 9//12 11//12 27//12
f 11//12 12//12 28//12
f 11//14 9//14 8//14
f 19//8 13//8 10//8
f 16//15 17//15 22//15
f 14//16 15//16 11//16
f 15//16 18//16 11//16
f 18//16 10//16 12//16
f 10//16 13//16 12//16
f 15//17 17//17 18//17
f 17//17 16//17 18//17
f 16//17 19//17 20//17
f 40//22 3//22 33//22
f 39//23 36//23 34//23
f 54//31 53//31 66//31
f 53//31 50//31 59//31
f 50//31 60//31 59//31
f 8//9 51//9 17//9
f 51//9 52//9 17//9
f 52//9 22//9 17//9
f 17//9 15//9 14//9
f 53//32 52//32 51//32
f 2//34 1//34 62//34
