# Blender v2.80 (sub 75) OBJ File: 'ring.blend'
# www.blender.org
o Cylinder.001
v 0.000000 -0.050000 -1.000000
v 0.000000 0.050000 -1.000000
v 0.195090 -0.050000 -0.980785
v 0.195090 0.050000 -0.980785
v 0.382683 -0.050000 -0.923880
v 0.382683 0.050000 -0.923880
v 0.555570 -0.050000 -0.831470
v 0.555570 0.050000 -0.831470
v 0.707107 -0.050000 -0.707107
v 0.707107 0.050000 -0.707107
v 0.831470 -0.050000 -0.555570
v 0.831470 0.050000 -0.555570
v 0.923880 -0.050000 -0.382683
v 0.923880 0.050000 -0.382683
v 0.980785 -0.050000 -0.195090
v 0.980785 0.050000 -0.195090
v 1.000000 -0.050000 0.000000
v 1.000000 0.050000 0.000000
v 0.980785 -0.050000 0.195090
v 0.980785 0.050000 0.195090
v 0.923880 -0.050000 0.382683
v 0.923880 0.050000 0.382683
v 0.831470 -0.050000 0.555570
v 0.831470 0.050000 0.555570
v 0.707107 -0.050000 0.707107
v 0.707107 0.050000 0.707107
v 0.555570 -0.050000 0.831470
v 0.555570 0.050000 0.831470
v 0.382683 -0.050000 0.923880
v 0.382683 0.050000 0.923880
v 0.195090 -0.050000 0.980785
v 0.195090 0.050000 0.980785
v -0.000000 -0.050000 1.000000
v -0.000000 0.050000 1.000000
v -0.195090 -0.050000 0.980785
v -0.195090 0.050000 0.980785
v -0.382683 -0.050000 0.923880
v -0.382683 0.050000 0.923880
v -0.555570 -0.050000 0.831470
v -0.555570 0.050000 0.831470
v -0.707107 -0.050000 0.707107
v -0.707107 0.050000 0.707107
v -0.831469 -0.050000 0.555570
v -0.831469 0.050000 0.555570
v -0.923880 -0.050000 0.382684
v -0.923880 0.050000 0.382684
v -0.980785 -0.050000 0.195090
v -0.980785 0.050000 0.195090
v -1.000000 -0.050000 -0.000000
v -1.000000 0.050000 -0.000000
v -0.980785 -0.050000 -0.195090
v -0.980785 0.050000 -0.195090
v -0.923879 -0.050000 -0.382684
v -0.923879 0.050000 -0.382684
v -0.831470 -0.050000 -0.555570
v -0.831470 0.050000 -0.555570
v -0.707107 -0.050000 -0.707107
v -0.707107 0.050000 -0.707107
v -0.555570 -0.050000 -0.831470
v -0.555570 0.050000 -0.831470
v -0.382683 -0.050000 -0.923880
v -0.382683 0.050000 -0.923880
v -0.195090 -0.050000 -0.980785
v -0.195090 0.050000 -0.980785
v 0.748323 0.050000 0.500013
v 0.748323 -0.050000 0.500013
v 0.000000 0.050000 -0.900000
v 0.000000 -0.050000 -0.900000
v -0.175581 0.050000 -0.882707
v -0.175581 -0.050000 -0.882707
v -0.344415 0.050000 -0.831492
v -0.344415 -0.050000 -0.831492
v -0.831491 0.050000 0.344415
v -0.831491 -0.050000 0.344415
v -0.748322 0.050000 0.500013
v -0.748322 -0.050000 0.500013
v -0.882707 0.050000 0.175581
v -0.882707 -0.050000 0.175581
v -0.636396 0.050000 0.636396
v -0.636396 -0.050000 0.636396
v -0.175581 0.050000 0.882707
v -0.175581 -0.050000 0.882707
v -0.000000 0.050000 0.900000
v -0.000000 -0.050000 0.900000
v -0.344415 0.050000 0.831492
v -0.344415 -0.050000 0.831491
v 0.882707 0.050000 -0.175581
v 0.882707 -0.050000 -0.175581
v 0.500013 0.050000 -0.748323
v 0.500013 -0.050000 -0.748323
v 0.900000 0.050000 0.000000
v 0.900000 -0.050000 0.000000
v 0.831492 0.050000 -0.344415
v 0.831491 -0.050000 -0.344415
v 0.175581 0.050000 0.882707
v 0.175581 -0.050000 0.882707
v -0.636396 0.050000 -0.636396
v -0.636396 -0.050000 -0.636396
v -0.500013 0.050000 -0.748323
v -0.500013 -0.050000 -0.748323
v -0.748323 0.050000 -0.500013
v -0.748323 -0.050000 -0.500013
v 0.882707 0.050000 0.175581
v 0.882707 -0.050000 0.175581
v 0.500013 0.050000 0.748323
v 0.500013 -0.050000 0.748323
v 0.636396 0.050000 0.636396
v 0.636396 -0.050000 0.636396
v 0.831492 0.050000 0.344415
v 0.831492 -0.050000 0.344415
v -0.900000 0.050000 -0.000000
v -0.900000 -0.050000 -0.000000
v -0.500013 0.050000 0.748323
v -0.500013 -0.050000 0.748323
v -0.882707 0.050000 -0.175581
v -0.882707 -0.050000 -0.175581
v 0.636396 0.050000 -0.636396
v 0.636396 -0.050000 -0.636396
v 0.344415 0.050000 0.831491
v 0.344415 -0.050000 0.831491
v 0.748323 0.050000 -0.500013
v 0.748323 -0.050000 -0.500013
v -0.831491 0.050000 -0.344415
v -0.831491 -0.050000 -0.344415
v 0.344415 0.050000 -0.831491
v 0.344415 -0.050000 -0.831491
v 0.175581 0.050000 -0.882707
v 0.175581 -0.050000 -0.882707
vn 0.0980 0.0000 -0.9952
vn 0.2903 0.0000 -0.9569
vn 0.4714 0.0000 -0.8819
vn 0.6344 0.0000 -0.7730
vn 0.7730 0.0000 -0.6344
vn 0.8819 0.0000 -0.4714
vn 0.9569 0.0000 -0.2903
vn 0.9952 0.0000 -0.0980
vn 0.9952 0.0000 0.0980
vn 0.9569 0.0000 0.2903
vn 0.8819 0.0000 0.4714
vn 0.7730 0.0000 0.6344
vn 0.6344 0.0000 0.7730
vn 0.4714 0.0000 0.8819
vn 0.2903 0.0000 0.9569
vn 0.0980 0.0000 0.9952
vn -0.0980 0.0000 0.9952
vn -0.2903 0.0000 0.9569
vn -0.4714 0.0000 0.8819
vn -0.6344 0.0000 0.7730
vn -0.7730 0.0000 0.6344
vn -0.8819 0.0000 0.4714
vn -0.9569 0.0000 0.2903
vn -0.9952 0.0000 0.0980
vn -0.9952 0.0000 -0.0980
vn -0.9569 0.0000 -0.2903
vn -0.8819 0.0000 -0.4714
vn -0.7730 0.0000 -0.6344
vn -0.6344 0.0000 -0.7730
vn -0.4714 0.0000 -0.8819
vn 0.0000 1.0000 -0.0000
vn -0.2903 0.0000 -0.9569
vn -0.0980 0.0000 -0.9952
vn -0.0000 -1.0000 0.0000
s off
f 2//1 3//1 1//1
f 4//2 5//2 3//2
f 6//3 7//3 5//3
f 8//4 9//4 7//4
f 10//5 11//5 9//5
f 12//6 13//6 11//6
f 14//7 15//7 13//7
f 16//8 17//8 15//8
f 18//9 19//9 17//9
f 20//10 21//10 19//10
f 22//11 23//11 21//11
f 24//12 25//12 23//12
f 26//13 27//13 25//13
f 28//14 29//14 27//14
f 30//15 31//15 29//15
f 32//16 33//16 31//16
f 34//17 35//17 33//17
f 36//18 37//18 35//18
f 38//19 39//19 37//19
f 40//20 41//20 39//20
f 42//21 43//21 41//21
f 44//22 45//22 43//22
f 46//23 47//23 45//23
f 48//24 49//24 47//24
f 50//25 51//25 49//25
f 52//26 53//26 51//26
f 54//27 55//27 53//27
f 56//28 57//28 55//28
f 58//29 59//29 57//29
f 60//30 61//30 59//30
f 2//31 67//31 127//31
f 62//32 63//32 61//32
f 64//33 1//33 63//33
f 68//34 70//34 63//34
f 104//25 91//25 92//25
f 107//28 66//28 108//28
f 66//27 109//27 110//27
f 115//9 112//9 116//9
f 87//23 94//23 88//23
f 91//24 88//24 92//24
f 121//21 118//21 122//21
f 67//16 70//16 68//16
f 81//1 84//1 82//1
f 102//11 123//11 124//11
f 83//33 96//33 84//33
f 69//15 72//15 70//15
f 117//20 90//20 118//20
f 114//3 85//3 86//3
f 32//31 95//31 83//31
f 90//19 125//19 126//19
f 105//29 108//29 106//29
f 99//13 98//13 100//13
f 124//10 115//10 116//10
f 119//30 106//30 120//30
f 79//4 114//4 80//4
f 73//6 76//6 74//6
f 127//17 68//17 128//17
f 93//22 122//22 94//22
f 111//8 78//8 112//8
f 109//26 104//26 110//26
f 85//2 82//2 86//2
f 71//14 100//14 72//14
f 125//18 128//18 126//18
f 95//32 120//32 96//32
f 77//7 74//7 78//7
f 97//12 102//12 98//12
f 35//34 82//34 84//34
f 75//5 80//5 76//5
f 2//1 4//1 3//1
f 4//2 6//2 5//2
f 6//3 8//3 7//3
f 8//4 10//4 9//4
f 10//5 12//5 11//5
f 12//6 14//6 13//6
f 14//7 16//7 15//7
f 16//8 18//8 17//8
f 18//9 20//9 19//9
f 20//10 22//10 21//10
f 22//11 24//11 23//11
f 24//12 26//12 25//12
f 26//13 28//13 27//13
f 28//14 30//14 29//14
f 30//15 32//15 31//15
f 32//16 34//16 33//16
f 34//17 36//17 35//17
f 36//18 38//18 37//18
f 38//19 40//19 39//19
f 40//20 42//20 41//20
f 42//21 44//21 43//21
f 44//22 46//22 45//22
f 46//23 48//23 47//23
f 48//24 50//24 49//24
f 50//25 52//25 51//25
f 52//26 54//26 53//26
f 54//27 56//27 55//27
f 56//28 58//28 57//28
f 58//29 60//29 59//29
f 60//30 62//30 61//30
f 6//31 4//31 125//31
f 4//31 2//31 127//31
f 125//31 4//31 127//31
f 2//31 64//31 69//31
f 64//31 62//31 71//31
f 62//31 60//31 71//31
f 60//31 58//31 99//31
f 71//31 60//31 99//31
f 58//31 56//31 101//31
f 56//31 54//31 123//31
f 54//31 52//31 123//31
f 52//31 50//31 115//31
f 123//31 52//31 115//31
f 50//31 111//31 115//31
f 56//31 123//31 101//31
f 64//31 71//31 69//31
f 8//31 6//31 125//31
f 12//31 10//31 121//31
f 10//31 8//31 117//31
f 121//31 10//31 117//31
f 16//31 14//31 93//31
f 14//31 12//31 121//31
f 91//31 18//31 16//31
f 87//31 91//31 16//31
f 14//31 121//31 93//31
f 93//31 87//31 16//31
f 58//31 101//31 97//31
f 58//31 97//31 99//31
f 89//31 117//31 8//31
f 125//31 89//31 8//31
f 2//31 69//31 67//31
f 62//32 64//32 63//32
f 64//33 2//33 1//33
f 63//34 1//34 68//34
f 1//34 3//34 128//34
f 3//34 5//34 128//34
f 5//34 7//34 126//34
f 128//34 5//34 126//34
f 7//34 9//34 118//34
f 9//34 11//34 122//34
f 11//34 13//34 122//34
f 13//34 15//34 94//34
f 122//34 13//34 94//34
f 15//34 17//34 92//34
f 15//34 92//34 88//34
f 9//34 122//34 118//34
f 1//34 128//34 68//34
f 59//34 61//34 72//34
f 61//34 63//34 72//34
f 55//34 57//34 102//34
f 57//34 59//34 98//34
f 102//34 57//34 98//34
f 51//34 53//34 124//34
f 53//34 55//34 102//34
f 112//34 49//34 116//34
f 49//34 51//34 116//34
f 53//34 102//34 124//34
f 15//34 88//34 94//34
f 124//34 116//34 51//34
f 7//34 118//34 90//34
f 7//34 90//34 126//34
f 100//34 98//34 59//34
f 72//34 100//34 59//34
f 70//34 72//34 63//34
f 104//25 103//25 91//25
f 107//28 65//28 66//28
f 66//27 65//27 109//27
f 115//9 111//9 112//9
f 87//23 93//23 94//23
f 91//24 87//24 88//24
f 121//21 117//21 118//21
f 67//16 69//16 70//16
f 81//1 83//1 84//1
f 102//11 101//11 123//11
f 83//33 95//33 96//33
f 69//15 71//15 72//15
f 117//20 89//20 90//20
f 114//3 113//3 85//3
f 20//31 18//31 91//31
f 20//31 91//31 103//31
f 24//31 22//31 109//31
f 22//31 20//31 103//31
f 28//31 26//31 105//31
f 26//31 24//31 107//31
f 105//31 26//31 107//31
f 32//31 30//31 119//31
f 30//31 28//31 105//31
f 36//31 34//31 81//31
f 34//31 32//31 83//31
f 81//31 34//31 83//31
f 40//31 38//31 85//31
f 38//31 36//31 81//31
f 44//31 42//31 75//31
f 42//31 40//31 79//31
f 75//31 42//31 79//31
f 48//31 46//31 73//31
f 46//31 44//31 75//31
f 111//31 50//31 77//31
f 50//31 48//31 77//31
f 46//31 75//31 73//31
f 38//31 81//31 85//31
f 30//31 105//31 119//31
f 22//31 103//31 109//31
f 73//31 77//31 48//31
f 24//31 109//31 65//31
f 24//31 65//31 107//31
f 113//31 79//31 40//31
f 85//31 113//31 40//31
f 32//31 119//31 95//31
f 90//19 89//19 125//19
f 105//29 107//29 108//29
f 99//13 97//13 98//13
f 124//10 123//10 115//10
f 119//30 105//30 106//30
f 79//4 113//4 114//4
f 73//6 75//6 76//6
f 127//17 67//17 68//17
f 93//22 121//22 122//22
f 111//8 77//8 78//8
f 109//26 103//26 104//26
f 85//2 81//2 82//2
f 71//14 99//14 100//14
f 125//18 127//18 128//18
f 95//32 119//32 120//32
f 77//7 73//7 74//7
f 97//12 101//12 102//12
f 47//34 49//34 112//34
f 47//34 112//34 78//34
f 43//34 45//34 74//34
f 45//34 47//34 78//34
f 39//34 41//34 114//34
f 41//34 43//34 80//34
f 114//34 41//34 80//34
f 35//34 37//34 86//34
f 37//34 39//34 114//34
f 31//34 33//34 96//34
f 33//34 35//34 84//34
f 96//34 33//34 84//34
f 27//34 29//34 120//34
f 29//34 31//34 96//34
f 23//34 25//34 66//34
f 25//34 27//34 108//34
f 66//34 25//34 108//34
f 19//34 21//34 110//34
f 21//34 23//34 66//34
f 92//34 17//34 19//34
f 104//34 92//34 19//34
f 21//34 66//34 110//34
f 29//34 96//34 120//34
f 37//34 114//34 86//34
f 45//34 78//34 74//34
f 110//34 104//34 19//34
f 43//34 74//34 76//34
f 43//34 76//34 80//34
f 106//34 108//34 27//34
f 120//34 106//34 27//34
f 35//34 86//34 82//34
f 75//5 79//5 80//5
