# Blender v2.80 (sub 75) OBJ File: ''
# www.blender.org
mtllib SM_Rock_01.mtl
o SM_Rock_01_Mesh
v 0.112674 0.067466 0.163345
v 0.108843 0.001577 0.163943
v 0.112602 -0.058591 0.162801
v 0.163275 0.055774 0.102179
v 0.158343 -0.098610 0.064944
v 0.053786 -0.109893 0.080094
v 0.055422 -0.108711 0.088816
v -0.026053 -0.127256 0.128860
v 0.123219 -0.099577 -0.078991
v 0.133036 0.114258 -0.037653
v 0.049401 -0.110360 0.073404
v 0.047302 0.127535 -0.021993
v -0.023886 0.128487 -0.092429
v 0.084454 -0.067267 -0.130644
v 0.055586 0.057270 -0.164337
v 0.030549 -0.047200 -0.168417
v -0.039887 -0.116647 -0.115505
v 0.010387 -0.107408 -0.099059
v -0.014552 0.093245 0.175090
v 0.005523 -0.032481 0.166550
v 0.005347 -0.103970 0.168804
v -0.005418 -0.113287 0.152592
v -0.022337 -0.127551 0.126901
v -0.062069 0.126373 0.105938
v -0.026935 0.111238 0.149647
v -0.022664 -0.127628 0.126291
v -0.085409 0.133180 -0.038192
v -0.065630 0.128087 0.057804
v -0.090128 0.134072 -0.089307
v -0.114477 0.114407 -0.117182
v -0.152045 0.067009 -0.128968
v -0.151527 0.015645 -0.131531
v -0.159298 -0.022958 -0.151074
v -0.163275 -0.082011 -0.158541
v -0.149707 -0.111654 -0.131373
v -0.100457 -0.134071 -0.026654
v -0.139853 -0.028263 -0.175090
v -0.121669 0.000331 -0.159455
v -0.131324 0.064155 -0.155879
vt 0.438994 0.378490
vt 0.438994 0.378490
vt 0.438994 0.378490
vt 0.438994 0.378490
vt 0.438994 0.378490
vt 0.438994 0.378490
vt 0.438994 0.378490
vt 0.438994 0.378490
vt 0.438994 0.378490
vt 0.438994 0.378490
vt 0.438994 0.378490
vt 0.438994 0.378490
vt 0.438994 0.378490
vt 0.438994 0.378490
vt 0.438994 0.378490
vt 0.438994 0.378490
vt 0.438994 0.378490
vt 0.438994 0.378490
vt 0.438994 0.378490
vt 0.438994 0.378490
vt 0.438994 0.378490
vt 0.438994 0.378490
vt 0.438994 0.378490
vt 0.438994 0.378490
vt 0.438994 0.378490
vt 0.438994 0.378490
vt 0.438994 0.378490
vt 0.438994 0.378490
vt 0.438994 0.378490
vt 0.438994 0.378490
vt 0.438994 0.378490
vt 0.438994 0.378490
vt 0.438994 0.378490
vt 0.438994 0.378490
vt 0.438994 0.378490
vt 0.438994 0.378490
vt 0.438994 0.378490
vt 0.438994 0.378490
vt 0.438994 0.378490
vn 0.0927 0.0036 0.9957
vn 0.0348 -0.0008 0.9994
vn 0.0392 0.0171 0.9991
vn 0.0426 0.0314 0.9986
vn 0.3706 -0.8841 0.2844
vn 0.3818 -0.8772 0.2910
vn 0.3864 -0.8743 0.2937
vn 0.7352 0.0331 0.6770
vn 0.7663 -0.0387 0.6413
vn 0.1921 0.9648 0.1796
vn 0.1893 -0.8747 0.4462
vn 0.8737 -0.1402 0.4658
vn -0.1375 -0.9778 0.1584
vn 0.2400 -0.9707 0.0100
vn 0.2347 -0.9721 -0.0016
vn 0.2400 -0.9707 0.0101
vn 0.2451 0.8969 0.3680
vn 0.2629 0.9246 0.2755
vn 0.2682 0.9319 0.2441
vn 0.1225 -0.9863 0.1107
vn 0.1799 0.9701 0.1626
vn 0.1072 -0.9942 -0.0009
vn 0.1057 -0.9942 -0.0191
vn 0.1035 0.9941 0.0314
vn 0.0236 0.9994 0.0265
vn 0.0115 0.9999 0.0093
vn 0.0084 1.0000 0.0050
vn 0.9711 0.0262 -0.2372
vn 0.4890 0.8373 0.2445
vn 0.9771 -0.0037 -0.2128
vn 0.0752 -0.9966 -0.0341
vn 0.1307 0.9843 -0.1188
vn 0.8189 0.0725 -0.5693
vn 0.0392 0.8000 -0.5987
vn 0.1621 -0.7773 -0.6079
vn 0.2561 0.8133 -0.5224
vn 0.8420 0.0498 -0.5372
vn 0.5462 -0.0984 -0.8318
vn 0.1506 -0.7678 -0.6227
vn 0.0790 -0.6536 -0.7527
vn 0.3242 -0.7590 -0.5646
vn 0.0451 -0.0605 0.9971
vn 0.3491 -0.8978 0.2686
vn -0.0100 -0.9914 0.1304
vn 0.1940 -0.9793 -0.0585
vn 0.1948 -0.9790 -0.0597
vn 0.1956 -0.9788 -0.0610
vn 0.0844 0.9964 0.0096
vn 0.0558 0.6523 -0.7559
vn 0.0231 0.6822 -0.7308
vn -0.0059 0.7072 -0.7070
vn -0.0433 0.0494 -0.9978
vn 0.0836 0.4366 -0.8957
vn 0.0045 -0.2961 -0.9552
vn -0.0153 -0.9792 -0.2024
vn -0.6773 0.7319 0.0753
vn -0.8888 0.0037 0.4584
vn -0.8875 0.0151 0.4606
vn -0.8873 0.0167 0.4609
vn -0.8836 -0.1620 0.4394
vn -0.8872 -0.0728 0.4557
vn -0.8870 -0.0536 0.4587
vn -0.8666 0.2461 0.4341
vn -0.8704 0.2309 0.4348
vn -0.8665 0.2525 0.4305
vn 0.1984 -0.9785 -0.0567
vn -0.8667 0.1948 0.4593
vn -0.8911 0.0154 0.4536
vn -0.8915 0.0072 0.4530
vn -0.9100 -0.0303 0.4135
vn -0.9089 -0.0373 0.4154
vn -0.9101 -0.0298 0.4134
vn -0.7998 0.5766 0.1669
vn -0.8100 0.5548 0.1901
vn -0.7926 0.5906 0.1513
vn -0.6802 0.7291 0.0763
vn -0.7438 -0.5225 0.4169
vn -0.7559 0.1320 -0.6412
vn -0.4941 0.5585 -0.6663
vn -0.4902 0.5482 -0.6777
vn -0.5218 0.6402 -0.5639
vn -0.7303 -0.0382 -0.6820
vn -0.7567 -0.0130 -0.6537
vn -0.6994 -0.0659 -0.7117
vn -0.5986 0.6050 -0.5251
vn 0.0308 -0.0170 0.9994
vn 0.3566 -0.8925 0.2761
vn 0.2341 -0.9722 -0.0031
vn 0.2163 0.8437 0.4913
vn 0.0285 0.9990 0.0335
vn 0.1930 -0.9796 -0.0569
vn 0.1306 0.5770 -0.8062
vn -0.8889 0.0019 0.4580
vn -0.8828 -0.1707 0.4376
vn -0.8797 0.1597 0.4479
vn -0.8795 0.1618 0.4475
vn 0.0100 0.9914 -0.1304
vn -0.8653 0.2008 0.4592
vn -0.9088 -0.0378 0.4155
vn -0.8126 0.5487 0.1965
vn -0.4601 0.4730 -0.7514
vn -0.7910 0.0225 -0.6114
usemtl lambert2
s 1
f 1/1/1 19/2/1 2/3/1
f 3/4/2 20/5/3 21/6/4
f 21/6/5 7/7/6 3/4/7
f 4/8/8 2/3/8 3/4/8
f 1/1/9 2/3/9 4/8/9
f 10/9/10 24/10/10 25/11/10
f 5/12/11 3/4/11 7/7/11
f 4/8/12 3/4/12 5/12/12
f 6/13/13 7/7/13 11/14/13
f 7/7/14 26/15/15 11/14/16
f 25/11/17 1/1/18 10/9/19
f 6/13/20 5/12/20 7/7/20
f 12/16/21 24/10/21 10/9/21
f 11/14/22 5/12/22 6/13/22
f 9/17/23 5/12/23 11/14/23
f 13/18/24 27/19/24 28/20/24
f 28/20/25 12/16/26 13/18/27
f 4/8/28 5/12/28 9/17/28
f 1/1/29 4/8/29 10/9/29
f 10/9/30 4/8/30 9/17/30
f 18/21/31 9/17/31 11/14/31
f 10/9/32 13/18/32 12/16/32
f 14/22/33 10/9/33 9/17/33
f 13/18/34 30/23/34 29/24/34
f 14/22/35 9/17/35 18/21/35
f 13/18/36 10/9/36 15/25/36
f 15/25/37 10/9/37 14/22/37
f 15/25/38 14/22/38 16/26/38
f 16/26/39 14/22/39 18/21/39
f 17/27/40 34/28/40 16/26/40
f 16/26/41 18/21/41 17/27/41
f 19/2/42 20/5/42 2/3/42
f 22/29/43 23/30/43 7/7/43
f 26/15/44 23/30/44 8/31/44
f 11/14/45 36/32/46 18/21/47
f 29/24/48 27/19/48 13/18/48
f 39/33/49 13/18/50 15/25/51
f 38/34/52 15/25/52 16/26/52
f 37/35/53 38/34/53 16/26/53
f 34/28/54 37/35/54 16/26/54
f 36/32/55 35/36/55 17/27/55
f 30/23/56 27/19/56 29/24/56
f 33/37/57 21/6/58 20/5/59
f 20/5/60 32/38/61 33/37/62
f 23/30/63 22/29/64 26/15/65
f 17/27/66 18/21/66 36/32/66
f 22/29/67 34/28/68 35/36/69
f 32/38/70 25/11/71 31/39/72
f 31/39/73 27/19/74 30/23/75
f 31/39/76 24/10/76 28/20/76
f 31/39/77 25/11/77 24/10/77
f 34/28/78 33/37/78 37/35/78
f 33/37/79 38/34/80 37/35/81
f 32/38/82 39/33/83 38/34/84
f 31/39/85 30/23/85 39/33/85
f 3/4/2 2/3/86 20/5/3
f 21/6/5 22/29/87 7/7/6
f 7/7/14 23/30/88 26/15/15
f 25/11/17 19/2/89 1/1/18
f 28/20/25 24/10/90 12/16/26
f 17/27/40 35/36/40 34/28/40
f 11/14/45 26/15/91 36/32/46
f 39/33/49 30/23/92 13/18/50
f 38/34/52 39/33/52 15/25/52
f 33/37/57 34/28/93 21/6/58
f 20/5/60 19/2/94 32/38/61
f 35/36/95 36/32/96 22/29/64
f 36/32/96 26/15/65 22/29/64
f 26/15/97 8/31/97 23/30/97
f 22/29/67 21/6/98 34/28/68
f 32/38/70 19/2/99 25/11/71
f 31/39/73 28/20/100 27/19/74
f 33/37/79 32/38/101 38/34/80
f 32/38/82 31/39/102 39/33/83
