# Blender v2.80 (sub 75) OBJ File: 'step_corner1.blend'
# www.blender.org
mtllib step_corner1.mtl
o Cube
v -0.835007 0.079624 0.420219
v -0.691401 0.064116 0.407790
v -0.400000 0.100000 0.400000
v -0.400000 0.000000 0.400000
v -0.400000 0.100000 1.000000
v -0.400000 0.000000 1.000000
v -1.000000 0.100000 0.400000
v -1.000000 0.000000 0.400000
v -1.000000 0.100000 1.000000
v -1.000000 0.000000 1.000000
v -0.800000 0.300000 0.800000
v -0.800000 0.200000 0.800000
v -0.800000 0.300000 1.000000
v -0.800000 0.200000 1.000000
v -1.000000 0.300000 0.800000
v -1.000000 0.200000 0.800000
v -1.000000 0.300000 1.000000
v -1.000000 0.200000 1.000000
v -0.600000 0.100000 0.600000
v -0.600000 0.200000 1.000000
v -0.600000 0.100000 1.000000
v -1.000000 0.200000 0.600000
v -1.000000 0.100000 0.600000
v -1.000000 0.200000 1.000000
v -1.000000 0.100000 1.000000
v -0.600000 0.189205 0.600000
v -0.684802 0.174326 0.600000
v -0.699603 0.200000 0.687529
v -0.600000 0.200000 0.633423
v -0.690198 0.200000 0.600000
v -0.714316 0.100000 0.427937
v -0.665065 0.100000 0.413841
v -0.851799 0.100000 0.421884
v -0.883575 0.100000 0.400000
v -0.863199 0.078386 0.400000
v -0.819151 0.100000 0.430856
v -0.675189 0.067877 0.400000
v -0.688628 0.060658 0.400000
v -0.828312 0.062663 0.400000
v -0.702551 0.058082 0.400000
v -0.642963 0.100000 0.400000
vt 0.909090 0.157461
vt 0.899276 0.174460
vt 0.833025 0.183172
vt 0.818181 0.157461
vt 0.918263 0.173348
vt 0.804294 0.181513
vt 0.786907 0.177371
vt 0.806143 0.157461
vt 0.375000 0.000000
vt 0.476234 0.000000
vt 0.485444 0.005767
vt 0.505965 0.011640
vt 0.549646 0.012857
vt 0.563249 0.009118
vt 0.576490 0.000000
vt 0.625000 0.000000
vt 0.625000 0.250000
vt 0.375000 0.250000
vt 0.375000 0.250000
vt 0.625000 0.250000
vt 0.625000 0.500000
vt 0.375000 0.500000
vt 0.625000 0.750000
vt 0.375000 0.750000
vt 0.625000 0.750000
vt 0.625000 1.000000
vt 0.375000 1.000000
vt 0.125000 0.500000
vt 0.375000 0.500000
vt 0.375000 0.750000
vt 0.125000 0.750000
vt 0.625000 0.500000
vt 0.875000 0.500000
vt 0.875000 0.548510
vt 0.820965 0.557000
vt 0.781658 0.571537
vt 0.770205 0.623937
vt 0.776646 0.629738
vt 0.794693 0.635338
vt 0.875000 0.648766
vt 0.875000 0.750000
vt 0.375000 0.000000
vt 0.625000 0.000000
vt 0.625000 0.250000
vt 0.375000 0.250000
vt 0.375000 0.250000
vt 0.625000 0.250000
vt 0.625000 0.500000
vt 0.375000 0.500000
vt 0.625000 0.750000
vt 0.375000 0.750000
vt 0.625000 0.750000
vt 0.625000 1.000000
vt 0.375000 1.000000
vt 0.125000 0.500000
vt 0.375000 0.500000
vt 0.375000 0.750000
vt 0.125000 0.750000
vt 0.625000 0.500000
vt 0.875000 0.500000
vt 0.875000 0.750000
vt 0.375000 0.250000
vt 0.625000 0.250000
vt 0.625000 0.500000
vt 0.375000 0.500000
vt 0.625000 0.750000
vt 0.375000 0.750000
vt 0.625000 0.750000
vt 0.625000 1.000000
vt 0.375000 1.000000
vt 0.125000 0.500000
vt 0.348012 0.500000
vt 0.375000 0.520889
vt 0.375000 0.750000
vt 0.125000 0.750000
vt 0.625000 0.500000
vt 0.875000 0.500000
vt 0.875000 0.693626
vt 0.810814 0.696999
vt 0.848012 0.750000
vt 0.375000 0.020889
vt 0.437252 0.054706
vt 0.431374 0.000000
vt 0.625000 0.000000
vt 0.625000 0.250000
vt 0.375000 0.250000
vt 0.375000 0.117550
vt 0.375000 0.129101
vt 0.399518 0.128101
vt 0.125000 0.620899
vt 0.125000 0.632450
vt 0.167026 0.624050
vt 0.164400 0.619718
vt 0.899053 0.140077
vt 0.822655 0.149712
vt 0.009173 0.173348
vt 0.000000 0.157461
vt 0.023329 0.157461
vt 0.035156 0.174399
vt 0.815255 0.152394
vt 0.010037 0.140077
vn -0.0245 0.4775 -0.8783
vn 0.2540 0.2848 -0.9243
vn -0.4685 0.4700 -0.7481
vn 0.0000 1.0000 0.0000
vn 0.0000 0.0000 1.0000
vn -1.0000 0.0000 0.0000
vn 0.0000 -1.0000 0.0000
vn 1.0000 0.0000 0.0000
vn 0.0000 0.0000 -1.0000
vn 0.9733 0.2045 0.1046
vn -0.1647 0.9386 -0.3032
vn -0.2585 0.3421 -0.9034
vn 0.0281 0.7704 -0.6370
vn 0.5002 0.4715 -0.7263
vn -0.1626 0.8790 -0.4481
vn 0.3478 0.7718 -0.5323
vn -0.4130 0.7688 -0.4883
usemtl Material
s off
f 1/1/1 36/2/1 31/3/1 2/4/1
f 1/1/2 33/5/2 36/2/2
f 2/4/3 32/6/3 41/7/3 37/8/3
f 3/9/4 41/10/4 32/11/4 31/12/4 36/13/4 33/14/4 34/15/4 7/16/4 9/17/4 5/18/4
f 6/19/5 5/20/5 9/21/5 10/22/5
f 10/22/6 9/21/6 7/23/6 8/24/6
f 8/24/7 4/25/7 6/26/7 10/27/7
f 4/28/8 3/29/8 5/30/8 6/31/8
f 8/32/9 7/33/9 34/34/9 35/35/9 39/36/9 40/37/9 38/38/9 37/39/9 41/40/9 3/41/9 4/25/9
f 11/42/4 15/43/4 17/44/4 13/45/4
f 14/46/5 13/47/5 17/48/5 18/49/5
f 18/49/6 17/48/6 15/50/6 16/51/6
f 16/51/7 12/52/7 14/53/7 18/54/7
f 12/55/8 11/56/8 13/57/8 14/58/8
f 16/59/9 15/60/9 11/61/9 12/52/9
f 21/62/5 20/63/5 24/64/5 25/65/5
f 25/65/6 24/64/6 22/66/6 23/67/6
f 23/67/7 19/68/7 21/69/7 25/70/7
f 19/71/8 26/72/8 29/73/8 20/74/8 21/75/8
f 23/76/9 22/77/9 30/78/9 27/79/9 26/80/9 19/68/9
f 29/81/4 28/82/4 30/83/4 22/84/4 24/85/4 20/86/4
f 28/87/10 27/88/10 30/89/10
f 27/90/11 28/91/11 29/92/11 26/93/11
f 32/6/12 2/4/12 31/3/12
f 39/94/13 1/1/13 2/4/13 40/95/13
f 33/96/14 1/97/14 35/98/14 34/99/14
f 40/95/15 2/4/15 38/100/15
f 35/98/16 1/97/16 39/101/16
f 38/100/17 2/4/17 37/8/17
