# Blender v2.80 (sub 75) OBJ File: 'step2.blend'
# www.blender.org
mtllib step2.mtl
o Cube
v -0.121274 0.170902 0.645188
v 0.417983 0.152393 0.610155
v 1.000000 0.100000 0.400000
v 1.000000 0.000000 0.400000
v 1.000000 0.100000 1.000000
v 1.000000 0.000000 1.000000
v -1.000000 0.100000 0.400000
v -1.000000 0.000000 0.400000
v -1.000000 0.100000 1.000000
v -1.000000 0.000000 1.000000
v 1.000000 0.200000 0.600000
v 1.000000 0.100000 0.600000
v 1.000000 0.200000 1.000000
v 1.000000 0.100000 1.000000
v -1.000000 0.200000 0.600000
v -1.000000 0.100000 0.600000
v -1.000000 0.200000 1.000000
v -1.000000 0.100000 1.000000
v 1.000000 0.300000 0.800000
v 1.000000 0.200000 0.800000
v 1.000000 0.300000 1.000000
v 1.000000 0.200000 1.000000
v -1.000000 0.300000 0.800000
v -1.000000 0.200000 0.800000
v -1.000000 0.300000 1.000000
v -1.000000 0.200000 1.000000
v -0.054943 0.200000 0.678864
v -0.179482 0.200000 0.647341
v -0.244364 0.200000 0.600000
v -0.197714 0.177805 0.600000
v 0.328438 0.200000 0.669888
v 0.506791 0.200000 0.622878
v 0.542217 0.200000 0.600000
v 0.443397 0.156645 0.600000
v 0.422491 0.151907 0.600000
v -0.102360 0.159205 0.600000
v 0.399772 0.150169 0.600000
v 0.779625 0.000000 0.400000
v 0.809131 0.100000 0.450877
v 0.681615 0.100000 0.400000
v 0.824303 0.000000 0.417826
v 0.831537 0.000000 0.400000
v 0.829780 0.100000 0.400000
v -0.568155 0.300000 0.908727
v -0.510812 0.300000 0.800000
v -0.568155 0.279454 0.800000
v -0.575263 0.300000 0.800000
vt 0.909090 0.157461
vt 0.898181 0.176356
vt 0.833665 0.184280
vt 0.818181 0.157461
vt 0.917587 0.172178
vt 0.805757 0.178980
vt 0.797845 0.175086
vt 0.813166 0.157461
vt 0.375000 0.000000
vt 0.396278 0.000000
vt 0.398859 0.021199
vt 0.414798 0.000000
vt 0.625000 0.000000
vt 0.625000 0.250000
vt 0.375000 0.250000
vt 0.375000 0.250000
vt 0.625000 0.250000
vt 0.625000 0.500000
vt 0.375000 0.500000
vt 0.625000 0.750000
vt 0.375000 0.750000
vt 0.597453 0.750000
vt 0.603038 0.757427
vt 0.603942 0.750000
vt 0.625000 0.750000
vt 0.625000 1.000000
vt 0.375000 1.000000
vt 0.125000 0.500000
vt 0.375000 0.500000
vt 0.375000 0.750000
vt 0.125000 0.750000
vt 0.625000 0.500000
vt 0.875000 0.500000
vt 0.875000 0.710202
vt 0.625000 0.722453
vt 0.375000 0.000000
vt 0.432223 0.000000
vt 0.436651 0.014299
vt 0.458945 0.043680
vt 0.506868 0.049290
vt 0.522435 0.029588
vt 0.530546 0.000000
vt 0.625000 0.000000
vt 0.625000 0.250000
vt 0.375000 0.250000
vt 0.375000 0.250000
vt 0.625000 0.250000
vt 0.625000 0.500000
vt 0.375000 0.500000
vt 0.625000 0.750000
vt 0.375000 0.750000
vt 0.625000 0.750000
vt 0.625000 1.000000
vt 0.375000 1.000000
vt 0.125000 0.500000
vt 0.375000 0.500000
vt 0.375000 0.750000
vt 0.125000 0.750000
vt 0.625000 0.500000
vt 0.875000 0.500000
vt 0.875000 0.594454
vt 0.819511 0.600286
vt 0.773013 0.612205
vt 0.750423 0.674971
vt 0.754767 0.677811
vt 0.766611 0.680425
vt 0.875000 0.692777
vt 0.875000 0.750000
vt 0.375000 0.000000
vt 0.563852 0.000000
vt 0.571019 0.135909
vt 0.571908 0.000000
vt 0.625000 0.000000
vt 0.625000 0.250000
vt 0.375000 0.250000
vt 0.375000 0.250000
vt 0.625000 0.250000
vt 0.625000 0.500000
vt 0.375000 0.500000
vt 0.625000 0.750000
vt 0.375000 0.750000
vt 0.625000 0.750000
vt 0.625000 1.000000
vt 0.375000 1.000000
vt 0.125000 0.500000
vt 0.375000 0.500000
vt 0.375000 0.750000
vt 0.125000 0.750000
vt 0.625000 0.500000
vt 0.875000 0.500000
vt 0.875000 0.553092
vt 0.823636 0.553981
vt 0.875000 0.561148
vt 0.875000 0.750000
vt 0.901544 0.144391
vt 0.820127 0.154090
vt 0.008497 0.172178
vt 0.000000 0.157461
vt 0.016875 0.157461
vt 0.023890 0.168561
vt 0.816920 0.155276
vt 0.007546 0.144391
vt 0.440628 0.750000
vt 0.453929 0.750000
vt 0.451586 0.743549
vt 0.439807 0.747740
vt 0.625000 0.728942
vt 0.875000 0.728722
vt 0.875000 0.750000
vt 0.440733 0.756012
vt 0.454227 0.767159
vt 0.375000 0.129130
vt 0.375000 0.142961
vt 0.377675 0.142484
vt 0.125000 0.607039
vt 0.125000 0.620870
vt 0.143525 0.607516
vn -0.0149 0.7709 -0.6368
vn 0.2139 0.4903 -0.8449
vn -0.3411 0.7776 -0.5282
vn 0.0000 1.0000 0.0000
vn 0.0000 0.0000 1.0000
vn -1.0000 0.0000 0.0000
vn 0.0000 -1.0000 -0.0000
vn 1.0000 0.0000 0.0000
vn 0.0000 0.0000 -1.0000
vn -0.2055 0.5917 -0.7796
vn 0.0175 0.9697 -0.2437
vn 0.3702 0.7781 -0.5074
vn -0.0760 0.9938 -0.0813
vn 0.1886 0.9670 -0.1714
vn -0.2187 0.9652 -0.1433
vn -0.9265 -0.0163 -0.3760
vn 0.3483 0.3414 -0.8730
vn 0.9432 0.3263 -0.0617
vn -0.3321 0.9268 -0.1751
usemtl Material
s off
f 1/1/1 27/2/1 31/3/1 2/4/1
f 1/1/2 28/5/2 27/2/2
f 2/4/3 32/6/3 33/7/3 34/8/3
f 3/9/4 43/10/4 39/11/4 40/12/4 7/13/4 9/14/4 5/15/4
f 6/16/5 5/17/5 9/18/5 10/19/5
f 10/19/6 9/18/6 7/20/6 8/21/6
f 8/21/7 38/22/7 41/23/7 42/24/7 4/25/7 6/26/7 10/27/7
f 4/28/8 3/29/8 5/30/8 6/31/8
f 8/32/9 7/33/9 40/34/9 38/35/9
f 11/36/4 33/37/4 32/38/4 31/39/4 27/40/4 28/41/4 29/42/4 15/43/4 17/44/4 13/45/4
f 14/46/5 13/47/5 17/48/5 18/49/5
f 18/49/6 17/48/6 15/50/6 16/51/6
f 16/51/7 12/52/7 14/53/7 18/54/7
f 12/55/8 11/56/8 13/57/8 14/58/8
f 16/59/9 15/60/9 29/61/9 30/62/9 36/63/9 37/64/9 35/65/9 34/66/9 33/67/9 11/68/9 12/52/9
f 19/69/4 45/70/4 44/71/4 47/72/4 23/73/4 25/74/4 21/75/4
f 22/76/5 21/77/5 25/78/5 26/79/5
f 26/79/6 25/78/6 23/80/6 24/81/6
f 24/81/7 20/82/7 22/83/7 26/84/7
f 20/85/8 19/86/8 21/87/8 22/88/8
f 24/89/9 23/90/9 47/91/9 46/92/9 45/93/9 19/94/9 20/82/9
f 32/6/10 2/4/10 31/3/10
f 36/95/11 1/1/11 2/4/11 37/96/11
f 28/97/12 1/98/12 30/99/12 29/100/12
f 37/96/13 2/4/13 35/101/13
f 30/99/14 1/98/14 36/102/14
f 35/101/15 2/4/15 34/8/15
f 41/103/16 39/104/16 43/105/16 42/106/16
f 42/107/9 43/108/9 3/109/9 4/25/9
f 39/104/17 41/103/17 38/110/17 40/111/17
f 44/112/18 46/113/18 47/114/18
f 46/115/19 44/116/19 45/117/19
