# Blender v2.80 (sub 75) OBJ File: 'step1.blend'
# www.blender.org
mtllib step1.mtl
o Cube
v 1.000000 0.100000 0.400000
v 1.000000 0.000000 0.400000
v 1.000000 0.100000 1.000000
v 1.000000 0.000000 1.000000
v -1.000000 0.100000 0.400000
v -1.000000 0.000000 0.400000
v -1.000000 0.100000 1.000000
v -1.000000 0.000000 1.000000
v 1.000000 0.200000 0.600000
v 1.000000 0.100000 0.600000
v 1.000000 0.200000 1.000000
v 1.000000 0.100000 1.000000
v -1.000000 0.200000 0.600000
v -1.000000 0.100000 0.600000
v -1.000000 0.200000 1.000000
v -1.000000 0.100000 1.000000
v 1.000000 0.300000 0.800000
v 1.000000 0.200000 0.800000
v 1.000000 0.300000 1.000000
v 1.000000 0.200000 1.000000
v -1.000000 0.300000 0.800000
v -1.000000 0.200000 0.800000
v -1.000000 0.300000 1.000000
v -1.000000 0.200000 1.000000
v 0.507464 0.100000 0.432719
v 0.465216 0.100000 0.400000
v 0.507464 0.061403 0.400000
v 0.522208 0.100000 0.400000
v -0.353093 0.200000 0.635926
v -0.380290 0.200000 0.600000
v -0.329962 0.156963 0.600000
v -0.319337 0.200000 0.600000
v 0.433089 0.300000 0.800000
v 0.355992 0.266356 0.800000
v 0.344749 0.300000 0.906160
v 0.341665 0.300000 0.800000
vt 0.375000 0.000000
vt 0.434724 0.000000
vt 0.436567 0.013633
vt 0.441848 0.000000
vt 0.625000 0.000000
vt 0.625000 0.250000
vt 0.375000 0.250000
vt 0.375000 0.250000
vt 0.625000 0.250000
vt 0.625000 0.500000
vt 0.375000 0.500000
vt 0.625000 0.750000
vt 0.375000 0.750000
vt 0.625000 0.750000
vt 0.625000 1.000000
vt 0.375000 1.000000
vt 0.125000 0.500000
vt 0.375000 0.500000
vt 0.375000 0.750000
vt 0.125000 0.750000
vt 0.625000 0.500000
vt 0.875000 0.500000
vt 0.875000 0.683152
vt 0.778508 0.688433
vt 0.875000 0.690276
vt 0.875000 0.750000
vt 0.375000 0.000000
vt 0.539917 0.000000
vt 0.544137 0.022454
vt 0.547536 0.000000
vt 0.625000 0.000000
vt 0.625000 0.250000
vt 0.375000 0.250000
vt 0.375000 0.250000
vt 0.625000 0.250000
vt 0.625000 0.500000
vt 0.375000 0.500000
vt 0.625000 0.750000
vt 0.375000 0.750000
vt 0.625000 0.750000
vt 0.625000 1.000000
vt 0.375000 1.000000
vt 0.125000 0.500000
vt 0.375000 0.500000
vt 0.375000 0.750000
vt 0.125000 0.750000
vt 0.625000 0.500000
vt 0.875000 0.500000
vt 0.875000 0.577464
vt 0.767408 0.583755
vt 0.875000 0.585083
vt 0.875000 0.750000
vt 0.375000 0.000000
vt 0.445864 0.000000
vt 0.456906 0.132700
vt 0.457292 0.000000
vt 0.625000 0.000000
vt 0.625000 0.250000
vt 0.375000 0.250000
vt 0.375000 0.250000
vt 0.625000 0.250000
vt 0.625000 0.500000
vt 0.375000 0.500000
vt 0.625000 0.750000
vt 0.375000 0.750000
vt 0.625000 0.750000
vt 0.625000 1.000000
vt 0.375000 1.000000
vt 0.125000 0.500000
vt 0.375000 0.500000
vt 0.375000 0.750000
vt 0.125000 0.750000
vt 0.625000 0.500000
vt 0.875000 0.500000
vt 0.875000 0.667708
vt 0.790890 0.669499
vt 0.875000 0.679136
vt 0.875000 0.750000
vt 0.592449 0.000000
vt 0.586124 0.000000
vt 0.589805 0.006134
vt 0.586124 1.000000
vt 0.592449 1.000000
vt 0.589805 0.996377
vt 0.381092 0.750000
vt 0.388673 0.750000
vt 0.384403 0.745557
vt 0.387309 0.755465
vt 0.375000 0.145015
vt 0.375000 0.159006
vt 0.379337 0.157562
vt 0.125000 0.590994
vt 0.125000 0.604985
vt 0.315217 0.591290
vn 0.0000 1.0000 0.0000
vn 0.0000 0.0000 1.0000
vn -1.0000 0.0000 0.0000
vn 0.0000 -1.0000 0.0000
vn 1.0000 0.0000 0.0000
vn 0.0000 -0.0000 -1.0000
vn 0.5086 0.5567 -0.6568
vn -0.8610 0.3289 -0.3880
vn -0.7173 0.1771 -0.6739
vn 0.5832 0.6820 -0.4414
vn 0.9197 0.3916 -0.0267
vn -0.3795 0.8696 -0.3158
usemtl Material
s off
f 1/1/1 28/2/1 25/3/1 26/4/1 5/5/1 7/6/1 3/7/1
f 4/8/2 3/9/2 7/10/2 8/11/2
f 8/11/3 7/10/3 5/12/3 6/13/3
f 6/13/4 2/14/4 4/15/4 8/16/4
f 2/17/5 1/18/5 3/19/5 4/20/5
f 6/21/6 5/22/6 26/23/6 27/24/6 28/25/6 1/26/6 2/14/6
f 9/27/1 32/28/1 29/29/1 30/30/1 13/31/1 15/32/1 11/33/1
f 12/34/2 11/35/2 15/36/2 16/37/2
f 16/37/3 15/36/3 13/38/3 14/39/3
f 14/39/4 10/40/4 12/41/4 16/42/4
f 10/43/5 9/44/5 11/45/5 12/46/5
f 14/47/6 13/48/6 30/49/6 31/50/6 32/51/6 9/52/6 10/40/6
f 17/53/1 33/54/1 35/55/1 36/56/1 21/57/1 23/58/1 19/59/1
f 20/60/2 19/61/2 23/62/2 24/63/2
f 24/63/3 23/62/3 21/64/3 22/65/3
f 22/65/4 18/66/4 20/67/4 24/68/4
f 18/69/5 17/70/5 19/71/5 20/72/5
f 22/73/6 21/74/6 36/75/6 34/76/6 33/77/6 17/78/6 18/66/6
f 25/79/7 27/80/7 26/81/7
f 27/82/8 25/83/8 28/84/8
f 31/85/9 29/86/9 32/87/9
f 29/86/10 31/85/10 30/88/10
f 35/89/11 34/90/11 36/91/11
f 34/92/12 35/93/12 33/94/12
