# Blender v2.80 (sub 75) OBJ File: 'tile3.blend'
# www.blender.org
mtllib tile3.mtl
o Cube_Cube.002
v -0.425323 -0.945978 0.793231
v 0.162456 -0.966984 0.603406
v -0.311088 0.882077 -0.990842
v -1.000000 -1.000000 -1.000000
v 1.000000 0.989631 0.360348
v 0.981906 1.000000 0.347772
v 0.528596 1.000000 1.000000
v 1.000000 1.000000 0.582391
v 0.709754 1.000000 1.000000
v 0.935880 0.912624 1.000000
v 0.911425 1.000000 1.000000
v 1.000000 0.951155 0.764270
v 0.957848 0.834135 1.000000
v 1.000000 0.859465 0.845032
v 1.000000 0.683530 1.000000
v 1.000000 1.000000 0.721246
v 0.859302 1.000000 -0.278970
v 0.936042 1.000000 -0.166350
v 1.000000 0.935539 -0.292524
v 1.000000 0.968883 -0.178705
v 0.936042 1.000000 -0.645161
v 0.859302 1.000000 -0.532540
v 1.000000 0.968883 -0.632806
v 1.000000 0.935539 -0.518986
v 0.832027 1.000000 -0.405755
v 1.000000 0.924605 -0.405755
v 1.000000 1.000000 -0.116430
v 1.000000 1.000000 -0.695080
v 1.000000 0.909004 -1.000000
v 1.000000 1.000000 -0.858926
v -0.026948 1.000000 -0.991493
v -0.033208 0.995034 -1.000000
v -0.101796 1.000000 -0.879552
v -0.305980 0.881655 -1.000000
v -0.324783 0.915027 -1.000000
v -0.317759 1.000000 -1.000000
v -0.842691 1.000000 -1.000000
v -1.000000 1.000000 -0.803514
v -1.000000 0.912303 -1.000000
v -0.820305 1.000000 1.000000
v -1.000000 1.000000 0.932265
v -1.000000 0.959311 1.000000
v 0.224938 1.000000 0.884888
v 0.256748 1.000000 1.000000
v 0.256748 0.769531 1.000000
v -0.191617 1.000000 1.000000
v 0.427638 0.967643 1.000000
v 0.449781 1.000000 1.000000
v 0.438069 1.000000 0.965202
v 0.398468 1.000000 1.000000
v 0.123113 -1.000000 0.578301
v 0.171013 -1.000000 0.580560
v 0.216203 -1.000000 0.607059
v -0.402102 -1.000000 0.727303
v 0.452362 -0.923099 1.000000
v -0.122809 -0.816225 1.000000
v 0.028378 -0.799087 1.000000
v 1.000000 -0.671752 1.000000
v 1.000000 -1.000000 -0.296607
v 0.515827 -0.964624 1.000000
v 0.493066 -1.000000 0.914648
v 1.000000 -0.771492 -1.000000
v 0.765388 -1.000000 -1.000000
v 1.000000 -1.000000 -0.557535
v -1.000000 -0.470092 0.315951
v -0.804363 -1.000000 0.371804
v -0.421546 -0.921762 1.000000
v -1.000000 -0.784183 0.755228
v -1.000000 -1.000000 0.201038
v -1.000000 -0.955250 0.315951
v -0.846455 -1.000000 0.359787
v -0.425323 -0.924230 0.989758
v -0.464569 -0.972641 0.824869
v -0.459487 -0.994636 0.773642
v -0.454424 -1.000000 0.765104
v -0.811307 -1.000000 0.396126
v -1.000000 -0.688862 1.000000
vt 0.409090 0.393651
vt 0.371576 0.458629
vt 0.350511 0.449649
vt 0.318182 0.393651
vt 0.324679 0.382398
vt 0.404886 0.386369
vt 0.227273 0.393651
vt 0.194943 0.449649
vt 0.196650 0.394351
vt 0.198188 0.393651
vt 0.223078 0.386387
vt 0.375000 0.000000
vt 0.375000 0.002822
vt 0.379958 0.000000
vt 0.375000 0.250000
vt 0.614038 0.250000
vt 0.625000 0.269664
vt 0.625000 0.335280
vt 0.614378 0.334402
vt 0.610207 0.336753
vt 0.624379 0.370849
vt 0.613625 0.500000
vt 0.403564 0.500000
vt 0.375000 0.470673
vt 0.125000 0.500000
vt 0.345673 0.500000
vt 0.375000 0.555308
vt 0.375000 0.587924
vt 0.311633 0.739331
vt 0.277025 0.700882
vt 0.271377 0.697570
vt 0.265389 0.697288
vt 0.199737 0.715913
vt 0.193197 0.720638
vt 0.148587 0.674516
vt 0.149455 0.671475
vt 0.144193 0.669973
vt 0.125000 0.650130
vt 0.781836 0.000000
vt 0.769660 0.000000
vt 0.616804 0.198999
vt 0.587059 0.274653
vt 0.781836 0.397143
vt 0.625000 0.808926
vt 0.604267 0.755269
vt 0.614078 0.758015
vt 0.625000 0.786281
vt 0.699634 0.345449
vt 0.699634 0.091165
vt 0.642274 0.165840
vt 0.597027 0.280922
vt 0.625000 0.761072
vt 0.625000 0.697799
vt 0.661281 0.750000
vt 0.636072 0.750000
vt 0.625000 0.715156
vt 0.618894 0.720534
vt 0.473517 0.130211
vt 0.463427 0.125032
vt 0.451560 0.153578
vt 0.454223 0.161266
vt 0.454363 0.120380
vt 0.436972 0.111452
vt 0.408043 0.250000
vt 0.388281 0.250000
vt 0.386620 0.277175
vt 0.402974 0.280428
vt 0.388714 0.192543
vt 0.381556 0.195508
vt 0.386620 0.222825
vt 0.402974 0.219572
vt 0.381556 0.304492
vt 0.388714 0.307457
vt 0.376829 0.319438
vt 0.376829 0.180562
vt 0.625000 0.517634
vt 0.753369 0.501063
vt 0.762725 0.515056
vt 0.789720 0.500000
vt 0.855336 0.500000
vt 0.875000 0.524561
vt 0.875000 0.741533
vt 0.852538 0.750000
vt 0.773952 0.750000
vt 0.721883 0.735611
vt 0.717906 0.750000
vt 0.700192 0.750000
vt 0.695242 0.745650
vt 0.693777 0.750000
vt 0.683926 0.750000
vt 0.625000 0.610446
vt 0.632995 0.604206
vt 0.642587 0.590129
vt 0.645997 0.574281
vt 0.642587 0.558433
vt 0.632995 0.544355
vt 0.625000 0.538115
vt 0.253873 0.587717
vt 0.254323 0.588981
vt 0.333359 0.608680
vt 0.333942 0.587717
vt 0.125000 0.747177
vt 0.125000 0.750000
vt 0.185815 0.750000
vt 0.188597 0.713929
vt 0.186131 0.712698
vt 0.375000 0.939185
vt 0.375000 1.000000
vt 0.379958 1.000000
vt 0.389836 0.990031
vt 0.281314 0.624869
vt 0.262451 0.637158
vt 0.281314 0.656331
vt 0.814351 0.699039
vt 0.800611 0.680557
vt 0.821556 0.692283
vt 0.625000 0.671032
vt 0.625000 0.703479
vt 0.566600 0.677901
vt 0.848012 0.671032
vt 0.375000 0.638850
vt 0.375000 0.645509
vt 0.382125 0.641913
vt 0.369588 0.643419
vt 0.537514 0.458629
vt 0.500000 0.393651
vt 0.572548 0.393651
vt 0.312975 0.384634
vt 0.314174 0.383461
vt 0.504647 0.385603
vt 0.496585 0.387738
vt 0.412505 0.387738
vt 0.564966 0.377405
vt 0.577492 0.383650
vt 0.379422 0.810522
vt 0.416031 0.750000
vt 0.585441 0.750000
vt 0.625000 0.818777
vt 0.620955 0.821545
vt 0.625000 0.825191
vt 0.625000 0.842906
vt 0.596191 0.842907
vt 0.625000 0.898952
vt 0.625000 0.977538
vt 0.619914 1.000000
vt 0.413892 1.000000
vt 0.384780 0.927693
vt 0.397972 0.890351
vt 0.400114 0.871453
vt 0.384613 0.818455
vt 0.686338 0.501272
vt 0.686338 0.668461
vt 0.756497 0.659476
vt 0.759796 0.648048
vt 0.447643 0.080495
vt 0.433162 0.141400
vt 0.473858 0.136955
vt 0.621110 0.545899
vt 0.616942 0.560127
vt 0.615576 0.574281
vt 0.616942 0.588435
vt 0.621110 0.602662
vt 0.597083 0.500000
vt 0.526130 0.500000
vt 0.526130 0.503162
vt 0.555027 0.552800
vt 0.540468 0.478263
vt 0.528091 0.494892
vt 0.232479 0.384634
vt 0.375000 0.099870
vt 0.380594 0.085506
vt 0.441238 0.085506
vt 0.401977 0.030597
vt 0.413892 0.000000
vt 0.619914 0.000000
vt 0.625000 0.008467
vt 0.625000 0.225439
vt 0.749109 0.544471
vt 0.744464 0.529773
vt 0.730490 0.553582
vt 0.727291 0.559032
vt 0.694812 0.614371
vt 0.695829 0.615348
vt 0.698575 0.621784
vt 0.700029 0.643770
vt 0.699941 0.645167
vt 0.776763 0.631966
vt 0.766868 0.600657
vn 0.1024 -0.9031 0.4170
vn 0.1876 -0.7263 0.6612
vn 0.3313 -0.9378 0.1038
vn 0.6071 -0.7898 0.0874
vn 0.7905 0.4454 0.4204
vn -0.0000 0.0000 -1.0000
vn -0.0000 -1.0000 -0.0000
vn -0.3496 -0.9048 -0.2430
vn 0.0000 0.0000 1.0000
vn 0.0000 1.0000 0.0000
vn 1.0000 0.0000 0.0000
vn 0.9208 0.2577 0.2926
vn 0.4079 0.9088 0.0878
vn 0.3814 0.8871 -0.2599
vn 0.4079 0.9088 -0.0878
vn 0.3814 0.8871 0.2599
vn 0.3294 0.8446 0.4220
vn 0.3294 0.8446 -0.4220
vn 0.0698 0.8383 -0.5407
vn -0.3718 0.8944 -0.2486
vn 0.4867 -0.0402 -0.8726
vn -0.4537 0.8138 -0.3632
vn -0.1905 0.8415 0.5055
vn -0.9639 0.0000 0.2664
vn 0.2365 0.4601 0.8558
vn -0.7952 0.5442 0.2676
vn 0.5672 0.5114 0.6455
vn -0.2680 -0.9164 0.2973
vn 0.4713 -0.5935 0.6524
vn -0.4089 -0.5886 0.6974
vn -0.0385 -0.5753 0.8170
vn -0.4911 -0.7506 0.4421
vn 0.5058 -0.8362 0.2117
vn 0.6544 -0.6719 -0.3470
vn -0.8977 -0.3584 -0.2563
vn -0.2745 0.0000 0.9616
vn 0.7002 -0.6282 0.3392
vn -1.0000 0.0000 0.0000
vn -0.3513 -0.8725 0.3398
usemtl None
s off
f 2/1/1 57/2/1 56/3/1 1/4/1
f 2/1/2 1/4/2 54/5/2 51/6/2
f 1/7/3 56/8/3 67/9/3 72/10/3
f 1/7/4 72/10/4 73/11/4
f 3/12/5 34/13/5 35/14/5
f 4/15/6 39/16/6 37/17/6 36/18/6 35/19/6 34/20/6 32/21/6 29/22/6 62/23/6 63/24/6
f 4/25/7 63/26/7 64/27/7 59/28/7 61/29/7 53/30/7 52/31/7 51/32/7 54/33/7 75/34/7 76/35/7 66/36/7 71/37/7 69/38/7
f 6/39/8 5/40/8 14/41/8 13/42/8 7/43/8
f 7/44/9 13/45/9 10/46/9 9/47/9
f 9/48/8 8/49/8 12/50/8 10/51/8
f 9/47/9 10/46/9 11/52/9
f 8/53/10 9/54/10 11/55/10 16/56/10
f 16/56/11 12/57/11 8/53/11
f 11/58/12 10/59/12 12/60/12 16/61/12
f 10/59/12 13/62/12 15/63/12 12/60/12
f 25/64/13 26/65/13 24/66/13 22/67/13
f 18/68/14 20/69/14 19/70/14 17/71/14
f 17/71/15 19/70/15 26/65/15 25/64/15
f 22/67/16 24/66/16 23/72/16 21/73/16
f 21/73/17 23/72/17 28/74/17
f 20/69/18 18/68/18 27/75/18
f 30/76/10 31/77/10 33/78/10 36/79/10 37/80/10 38/81/10 41/82/10 40/83/10 46/84/10 43/85/10 44/86/10 50/87/10 49/88/10 48/89/10 7/90/10 9/54/10 8/53/10 27/91/10 18/92/10 17/93/10 25/94/10 22/95/10 21/96/10 28/97/10
f 32/98/19 31/99/19 30/100/19 29/101/19
f 34/102/20 3/103/20 33/104/20 31/105/20 32/106/20
f 33/107/21 3/108/21 35/109/21 36/110/21
f 37/111/22 39/112/22 38/113/22
f 42/114/23 40/115/23 41/116/23
f 43/117/24 45/118/24 44/119/24
f 45/118/25 43/117/25 46/120/25
f 49/121/26 47/122/26 48/123/26
f 47/122/27 49/121/27 50/124/27
f 57/125/28 2/126/28 55/127/28
f 54/5/29 1/4/29 74/128/29 75/129/29
f 53/130/30 2/126/30 52/131/30
f 52/132/31 2/1/31 51/6/31
f 55/127/32 2/126/32 53/130/32 61/133/32 60/134/32
f 60/135/9 58/136/9 15/137/9 13/45/9 7/44/9 48/138/9 47/139/9 50/140/9 44/141/9 45/142/9 46/143/9 40/144/9 42/145/9 77/146/9 67/147/9 56/148/9 57/149/9 55/150/9
f 59/151/33 58/152/33 60/153/33 61/154/33
f 64/155/34 63/156/34 62/157/34
f 64/27/11 62/23/11 29/22/11 30/76/11 28/97/11 23/158/11 24/159/11 26/160/11 19/161/11 20/162/11 27/91/11 8/53/11 12/57/11 15/137/11 58/136/11 59/28/11
f 65/163/35 66/164/35 76/165/35 68/166/35
f 66/164/36 65/163/36 70/167/36 71/168/36
f 73/11/37 74/169/37 1/7/37
f 69/170/38 70/171/38 65/172/38 68/173/38 77/174/38 42/175/38 41/176/38 38/177/38 39/16/38 4/15/38
f 70/178/39 69/179/39 71/180/39
f 76/181/39 75/182/39 74/183/39 73/184/39 72/185/39 67/186/39 77/187/39 68/188/39
